<?xml version="1.0" encoding="UTF-8"?>
<svg version="1.1" xmlns="http://www.w3.org/2000/svg" width="682" height="682">
<path d="M0 0 C225.06 0 450.12 0 682 0 C682 225.06 682 450.12 682 682 C456.94 682 231.88 682 0 682 C0 456.94 0 231.88 0 0 Z " fill="#EAE7E1" transform="translate(0,0)"/>
<path d="M0 0 C2.69473744 2.14354115 4.44761163 3.71335667 5.15625 7.16796875 C5.39570893 12.80523099 4.25441736 15.87353305 0.640625 20.1796875 C-1.33642994 22.27928716 -3.37245914 24.29945657 -5.4375 26.3125 C-43.42469099 63.66445368 -61.93955019 120.73182102 -62.5 172.9375 C-62.5334616 190.42773459 -60.62722964 208.23149464 -56.25 225.1875 C-55.91355469 226.54875 -55.91355469 226.54875 -55.5703125 227.9375 C-54.85368951 230.70736862 -54.06902884 233.44618428 -53.25 236.1875 C-52.93675781 237.24582031 -52.62351563 238.30414063 -52.30078125 239.39453125 C-38.73988518 282.55148821 -12.36591144 321.6380294 23.97753906 348.84179688 C25.68695667 350.1396357 27.35641066 351.47648161 29.0234375 352.828125 C72.37042901 387.22418685 133.54658204 400.21271785 187.7980957 394.41381836 C230.09793957 389.03808089 270.59897738 374.38426099 303.75 347.1875 C304.31960449 346.72085937 304.88920898 346.25421875 305.47607422 345.7734375 C313.07398599 339.50227832 320.16662167 332.9428819 326.93359375 325.78125 C332.28637363 320.85164412 337.0777108 318.44245475 344.44140625 318.72265625 C348.02493706 319.44421321 349.63353253 321.32002794 351.75 324.1875 C355.08224529 330.85199059 351.88352557 339.28685437 349.75 345.875 C349.43313232 346.87611816 349.11626465 347.87723633 348.78979492 348.90869141 C347.79648341 352.00856288 346.77787161 355.09893157 345.75 358.1875 C345.29294678 359.57654541 345.29294678 359.57654541 344.82666016 360.99365234 C330.28453177 404.66732898 305.40026523 442.54771518 273.125 475.0625 C272.26656494 475.93028076 271.40812988 476.79806152 270.52368164 477.69213867 C264.5757884 483.61056726 258.33752556 488.99419312 251.75 494.1875 C251.0698584 494.72697266 250.3897168 495.26644531 249.68896484 495.82226562 C210.97197977 526.18933198 165.07518475 545.57965224 116.75 554.1875 C115.87553223 554.35266113 115.00106445 554.51782227 114.10009766 554.68798828 C99.26061497 557.4031784 84.41264129 557.47295335 69.375 557.5 C68.39198914 557.50367584 67.40897827 557.50735168 66.3961792 557.51113892 C53.70558756 557.53589059 41.32425289 556.91150415 28.75 555.1875 C27.72632324 555.052229 26.70264648 554.91695801 25.64794922 554.77758789 C-16.03629736 548.92974372 -56.40994054 532.62302526 -91.25 509.1875 C-91.99121094 508.6910498 -92.73242188 508.19459961 -93.49609375 507.68310547 C-109.40555962 496.94980808 -123.38008142 484.40406343 -137.25 471.1875 C-138.0440625 470.43597656 -138.838125 469.68445313 -139.65625 468.91015625 C-144.11536147 464.58375643 -148.03898322 459.92069644 -151.91796875 455.0703125 C-153.42804583 453.20358405 -154.97082308 451.36265322 -156.55078125 449.5546875 C-168.72255242 435.57009935 -178.64166827 419.57312998 -187.25 403.1875 C-187.58692871 402.55070312 -187.92385742 401.91390625 -188.27099609 401.2578125 C-222.36066691 336.36853943 -230.83555538 257.51882568 -209.48046875 187.1796875 C-207.87167964 182.13133995 -206.08924986 177.15568552 -204.25 172.1875 C-203.98783691 171.45418457 -203.72567383 170.72086914 -203.45556641 169.96533203 C-193.91720281 143.29733362 -180.58600826 119.46942525 -163.25 97.1875 C-162.56292969 96.29675781 -161.87585938 95.40601563 -161.16796875 94.48828125 C-148.96203478 78.94177588 -135.87154224 64.37230294 -120.25 52.1875 C-119.63382812 51.70023438 -119.01765625 51.21296875 -118.3828125 50.7109375 C-88.03929179 26.74309818 -54.64567741 8.97853833 -16.9375 -0.1875 C-16.24994629 -0.35556152 -15.56239258 -0.52362305 -14.85400391 -0.69677734 C-9.30484626 -1.9707835 -5.07680593 -2.83129561 0 0 Z " fill="#B8B7B3" transform="translate(275.25,81.8125)"/>
<path d="M0 0 C2.69473744 2.14354115 4.44761163 3.71335667 5.15625 7.16796875 C5.39570893 12.80523099 4.25441736 15.87353305 0.640625 20.1796875 C-1.33642994 22.27928716 -3.37245914 24.29945657 -5.4375 26.3125 C-43.42469099 63.66445368 -61.93955019 120.73182102 -62.5 172.9375 C-62.5334616 190.42773459 -60.62722964 208.23149464 -56.25 225.1875 C-55.91355469 226.54875 -55.91355469 226.54875 -55.5703125 227.9375 C-54.85368951 230.70736862 -54.06902884 233.44618428 -53.25 236.1875 C-52.93675781 237.24582031 -52.62351563 238.30414063 -52.30078125 239.39453125 C-38.73988518 282.55148821 -12.36591144 321.6380294 23.97753906 348.84179688 C25.68695667 350.1396357 27.35641066 351.47648161 29.0234375 352.828125 C72.37042901 387.22418685 133.54658204 400.21271785 187.7980957 394.41381836 C230.09793957 389.03808089 270.59897738 374.38426099 303.75 347.1875 C304.31960449 346.72085937 304.88920898 346.25421875 305.47607422 345.7734375 C313.07398599 339.50227832 320.16662167 332.9428819 326.93359375 325.78125 C332.28637363 320.85164412 337.0777108 318.44245475 344.44140625 318.72265625 C348.02493706 319.44421321 349.63353253 321.32002794 351.75 324.1875 C355.08224529 330.85199059 351.88352557 339.28685437 349.75 345.875 C349.43313232 346.87611816 349.11626465 347.87723633 348.78979492 348.90869141 C347.79648341 352.00856288 346.77787161 355.09893157 345.75 358.1875 C345.29294678 359.57654541 345.29294678 359.57654541 344.82666016 360.99365234 C330.28453177 404.66732898 305.40026523 442.54771518 273.125 475.0625 C272.26656494 475.93028076 271.40812988 476.79806152 270.52368164 477.69213867 C264.5757884 483.61056726 258.33752556 488.99419312 251.75 494.1875 C251.0698584 494.72697266 250.3897168 495.26644531 249.68896484 495.82226562 C210.97197977 526.18933198 165.07518475 545.57965224 116.75 554.1875 C115.87553223 554.35266113 115.00106445 554.51782227 114.10009766 554.68798828 C99.26061497 557.4031784 84.41264129 557.47295335 69.375 557.5 C68.39198914 557.50367584 67.40897827 557.50735168 66.3961792 557.51113892 C53.70558756 557.53589059 41.32425289 556.91150415 28.75 555.1875 C27.72632324 555.052229 26.70264648 554.91695801 25.64794922 554.77758789 C-16.03629736 548.92974372 -56.40994054 532.62302526 -91.25 509.1875 C-91.99121094 508.6910498 -92.73242188 508.19459961 -93.49609375 507.68310547 C-109.40555962 496.94980808 -123.38008142 484.40406343 -137.25 471.1875 C-138.0440625 470.43597656 -138.838125 469.68445313 -139.65625 468.91015625 C-144.11536147 464.58375643 -148.03898322 459.92069644 -151.91796875 455.0703125 C-153.42804583 453.20358405 -154.97082308 451.36265322 -156.55078125 449.5546875 C-168.72255242 435.57009935 -178.64166827 419.57312998 -187.25 403.1875 C-187.58692871 402.55070312 -187.92385742 401.91390625 -188.27099609 401.2578125 C-222.36066691 336.36853943 -230.83555538 257.51882568 -209.48046875 187.1796875 C-207.87167964 182.13133995 -206.08924986 177.15568552 -204.25 172.1875 C-203.98783691 171.45418457 -203.72567383 170.72086914 -203.45556641 169.96533203 C-193.91720281 143.29733362 -180.58600826 119.46942525 -163.25 97.1875 C-162.56292969 96.29675781 -161.87585938 95.40601563 -161.16796875 94.48828125 C-148.96203478 78.94177588 -135.87154224 64.37230294 -120.25 52.1875 C-119.63382812 51.70023438 -119.01765625 51.21296875 -118.3828125 50.7109375 C-88.03929179 26.74309818 -54.64567741 8.97853833 -16.9375 -0.1875 C-16.24994629 -0.35556152 -15.56239258 -0.52362305 -14.85400391 -0.69677734 C-9.30484626 -1.9707835 -5.07680593 -2.83129561 0 0 Z M-107.25 77.1875 C-107.96929687 77.79722656 -108.68859375 78.40695313 -109.4296875 79.03515625 C-123.58952448 91.40713502 -136.58687207 104.67571118 -147.25 120.1875 C-147.69279297 120.82284668 -148.13558594 121.45819336 -148.59179688 122.11279297 C-154.6600252 130.84756656 -160.19728273 139.82729643 -165.25 149.1875 C-165.57178223 149.77515137 -165.89356445 150.36280273 -166.22509766 150.96826172 C-172.85950656 163.19127763 -177.67696829 176.07474814 -182.25 189.1875 C-182.63865234 190.29399902 -182.63865234 190.29399902 -183.03515625 191.42285156 C-189.43599758 210.06758794 -194.15463948 231.88747832 -194.23535156 251.62158203 C-194.25390968 254.87234597 -194.33094382 258.12098158 -194.3984375 261.37109375 C-195.55911812 329.69855695 -171.8109135 395.64879224 -124.07080078 445.30810547 C-109.42498204 460.59171502 -109.42498204 460.59171502 -93.25 474.1875 C-92.28441162 474.91114746 -92.28441162 474.91114746 -91.29931641 475.64941406 C-57.91012569 500.57214106 -21.97480148 517.87248522 18.9375 526.4375 C19.64753174 526.58880371 20.35756348 526.74010742 21.08911133 526.89599609 C37.67252018 530.14764489 54.46699979 530.59236761 71.3125 530.5625 C72.89165695 530.56268127 72.89165695 530.56268127 74.50271606 530.56286621 C90.61135305 530.53657663 105.9741623 529.6784684 121.75 526.1875 C123.27830657 525.88241013 124.8069368 525.57893563 126.3359375 525.27734375 C166.12832821 517.036022 205.64759799 497.11378924 236.75 471.1875 C237.30961426 470.72939941 237.86922852 470.27129883 238.44580078 469.79931641 C253.3077156 457.62109683 267.54357043 444.01327271 278.875 428.4375 C279.33310059 427.80827637 279.79120117 427.17905273 280.26318359 426.53076172 C297.07320281 403.24248382 297.07320281 403.24248382 308.75 377.1875 C308.09443115 377.61232666 307.4388623 378.03715332 306.76342773 378.47485352 C289.56279745 389.53272673 272.04437243 399.33803446 252.75 406.1875 C251.85055664 406.51943359 250.95111328 406.85136719 250.02441406 407.19335938 C185.41740224 430.96659879 114.20498369 426.1799549 51.890625 397.71484375 C34.64880511 389.44614997 18.7233363 379.03449578 3.75 367.1875 C3.14124023 366.70716309 2.53248047 366.22682617 1.90527344 365.73193359 C-9.78136035 356.40974325 -20.80442549 345.78362943 -30.25 334.1875 C-31.4565625 332.72183594 -31.4565625 332.72183594 -32.6875 331.2265625 C-70.38820557 284.7626951 -88.45114673 230.51190595 -88.5 171.0625 C-88.50100708 170.20377289 -88.50201416 169.34504578 -88.50305176 168.46029663 C-88.49340598 156.26534008 -88.09108069 144.4164788 -85.68554688 132.42236328 C-85.24691183 130.17165407 -84.89049157 127.91933951 -84.546875 125.65234375 C-80.7812852 102.43687526 -72.14472963 79.09942669 -61.33837891 58.28515625 C-60.30011523 56.28408817 -59.2907922 54.27148386 -58.29296875 52.25 C-56.96068401 49.55422948 -55.61468822 46.86694881 -54.25 44.1875 C-70.87065302 44.1875 -95.19524555 66.84532137 -107.25 77.1875 Z " fill="#727271" transform="translate(275.25,81.8125)"/>
<path d="M0 0 C1.77417046 -0.01073296 1.77417046 -0.01073296 3.58418274 -0.02168274 C6.81583187 -0.03566259 10.04643881 -0.02729454 13.27802968 -0.00759244 C16.66562254 0.00883653 20.05316466 -0.00002453 23.44078064 -0.00511169 C29.12764674 -0.00962734 34.81418334 0.00620544 40.50097656 0.03417969 C47.06996861 0.06624502 53.63836706 0.06620843 60.20740134 0.04896492 C66.53568129 0.03308734 72.8637442 0.03984017 79.19201469 0.05690193 C81.88133989 0.06376342 84.57049063 0.06274945 87.25981331 0.05535698 C91.01603221 0.04991306 94.77124001 0.07025557 98.52734375 0.09765625 C100.19742493 0.08786743 100.19742493 0.08786743 101.90124512 0.07788086 C109.43615007 0.17144468 109.43615007 0.17144468 113.36595154 2.53944397 C117.70630069 7.49220909 117.10326135 14.35783417 116.92944336 20.65063477 C116.25654782 28.10609167 111.84998251 32.25190524 106.64770508 37.20629883 C104.50354884 39.31504433 102.68266196 41.64553597 100.82397461 44.00610352 C95.64397483 50.36799273 90.24447054 56.53422894 84.85864258 62.72143555 C78.73819001 69.76382743 72.63867124 76.82113153 66.76147461 84.06860352 C63.16261375 88.50349738 59.45164695 92.82677378 55.69897461 97.13110352 C51.10269554 102.40320805 46.59795222 107.72768002 42.19897461 113.16625977 C39.89145932 116.01009209 37.54545251 118.8193341 35.19897461 121.63110352 C36.1672821 121.63474915 37.1355896 121.63839478 38.13323975 121.64215088 C47.2562041 121.67908338 56.37883036 121.7368367 65.50153732 121.81500626 C70.191713 121.85452485 74.88169971 121.88669173 79.57202148 121.90209961 C84.09802082 121.91723748 88.62350077 121.95163149 93.1492691 121.99941254 C94.87639096 122.01425606 96.60358696 122.02214623 98.3307724 122.02298737 C100.74931793 122.02534993 103.16641975 122.05236977 105.5847168 122.08520508 C106.2996933 122.08017471 107.0146698 122.07514435 107.75131226 122.06996155 C111.11509748 122.14067705 112.90795545 122.40842871 115.61236572 124.47772217 C118.99848997 129.07344633 118.45315632 134.03973603 118.51147461 139.50610352 C118.54047852 140.40458008 118.56948242 141.30305664 118.59936523 142.22875977 C118.64082607 146.5470656 118.61632532 148.9547372 116.30444336 152.70141602 C113.16355564 155.58007749 111.44961062 155.75863045 107.28459167 155.77827454 C106.24571304 155.78542984 105.20683441 155.79258514 104.13647461 155.79995728 C102.99202881 155.80264618 101.84758301 155.80533508 100.66845703 155.80810547 C99.46675369 155.81467667 98.26505035 155.82124786 97.02693176 155.82801819 C93.72515396 155.84437339 90.42344028 155.85598034 87.12163711 155.86422372 C85.05887014 155.86937371 82.99610768 155.87544945 80.93334389 155.88173485 C74.47966004 155.90078757 68.02598763 155.91501838 61.57228106 155.92334682 C54.12214034 155.9331198 46.67229669 155.9594402 39.22226065 155.99984771 C33.46422548 156.03000656 27.70627548 156.04481546 21.94816285 156.04812783 C18.50890416 156.05047866 15.06996279 156.05944254 11.6307888 156.084589 C7.7929877 156.11219657 3.95557753 156.10803927 0.11767578 156.10107422 C-1.02069733 156.11388428 -2.15907043 156.12669434 -3.3319397 156.13989258 C-11.03614043 156.08881398 -11.03614043 156.08881398 -14.98344421 153.72673035 C-18.59824963 149.55894774 -18.05412207 145.6798795 -18.11352539 140.38110352 C-18.1425293 139.53418945 -18.1715332 138.68727539 -18.20141602 137.81469727 C-18.25853567 132.16424576 -17.53274173 129.10793153 -13.80102539 124.63110352 C-13.33817139 124.07471191 -12.87531738 123.51832031 -12.3984375 122.94506836 C-10.82936486 121.08705581 -9.22634039 119.26373333 -7.61352539 117.44360352 C-2.98628252 112.16547301 1.53786503 106.82815087 5.95678711 101.37329102 C8.50151144 98.26110203 11.09515686 95.19383854 13.69897461 92.13110352 C17.07186063 88.162112 20.41074235 84.17093172 23.69897461 80.13110352 C26.98721201 76.09126899 30.32628922 72.10027075 33.69897461 68.13110352 C38.60447096 62.35563345 43.41670345 56.50913485 48.19897461 50.63110352 C49.80271238 48.67241893 51.4068747 46.71408188 53.01147461 44.75610352 C55.76283312 41.39834358 58.48919223 38.02248326 61.19897461 34.63110352 C60.28300003 34.6296785 59.36702545 34.62825348 58.42329407 34.62678528 C49.78622005 34.60894734 41.14965804 34.5673104 32.51282978 34.49901295 C28.07261223 34.46473853 23.63273891 34.43963231 19.19238281 34.43554688 C14.90619201 34.43126482 10.62077777 34.40281064 6.33482933 34.35767174 C4.70063998 34.34469362 3.06635771 34.3403902 1.43212318 34.34494972 C-0.85957801 34.34985394 -3.14900794 34.32377686 -5.44042969 34.29052734 C-7.39567818 34.28053459 -7.39567818 34.28053459 -9.39042664 34.27033997 C-13.65488671 33.47106731 -15.13717185 31.98590762 -17.80102539 28.63110352 C-18.7686927 24.83599432 -18.54458938 21.03608204 -18.48852539 17.13110352 C-18.51624023 16.09856445 -18.54395508 15.06602539 -18.57250977 14.00219727 C-18.56928711 13.00317383 -18.56606445 12.00415039 -18.56274414 10.97485352 C-18.56234131 10.06928711 -18.56193848 9.1637207 -18.56152344 8.23071289 C-17.66956007 5.18171581 -16.30842547 3.65586045 -13.83413601 1.69491005 C-9.55427092 -0.54449021 -4.71926178 -0.04964943 0 0 Z " fill="#4A5C90" transform="translate(417.801025390625,41.368896484375)"/>
<path d="M0 0 C0.89978073 -0.0071553 1.79956146 -0.01431061 2.72660828 -0.02168274 C5.69521145 -0.03856516 8.6623035 -0.01916974 11.63085938 0.00219727 C13.6968193 0.00136853 15.76277917 -0.00109104 17.82873535 -0.00511169 C22.15637076 -0.00796939 26.48348855 0.00672908 30.81103516 0.03417969 C36.35629403 0.0682621 41.90062731 0.06224381 47.44593048 0.04351711 C51.71136174 0.03294498 55.97657788 0.04188695 60.24198914 0.05690193 C62.28650778 0.06208262 64.33104891 0.06160333 66.37556458 0.05535698 C69.23394011 0.0499023 72.09099385 0.07028821 74.94921875 0.09765625 C75.79300583 0.09113037 76.63679291 0.08460449 77.50614929 0.07788086 C81.52846274 0.14331696 83.51059465 0.33734229 86.99131775 2.54093933 C90.70934415 6.459317 90.03145287 10.92280096 90.04272461 16.07055664 C89.5801698 25.22136061 84.88506582 30.02520977 78.52148438 36.1081543 C76.32306729 38.27256809 74.44353353 40.64644895 72.53710938 43.06860352 C68.93824739 47.50349877 65.2272505 51.82674603 61.47460938 56.13110352 C56.96893545 61.29996705 52.55837702 66.52690268 48.24414062 71.85766602 C45.08412899 75.71929813 41.84889859 79.51580722 38.60302734 83.30541992 C36.57467063 85.68473911 34.7117636 88.02537217 32.97460938 90.63110352 C33.60021759 90.63696976 34.22582581 90.642836 34.87039185 90.64888 C41.39208021 90.7129008 47.91327907 90.79734324 54.43457031 90.89355469 C56.86712178 90.92677298 59.29974975 90.9548145 61.73242188 90.97753906 C65.23275296 91.0111411 68.73238493 91.06346185 72.23242188 91.11938477 C73.85931442 91.12896965 73.85931442 91.12896965 75.51907349 91.13874817 C81.03030964 91.24563601 85.26896327 91.41194427 89.97460938 94.63110352 C91.72682006 98.13552488 91.28644475 102.08194782 91.34960938 105.94360352 C91.38699219 106.79889648 91.424375 107.65418945 91.46289062 108.53540039 C91.47449219 109.36749023 91.48609375 110.19958008 91.49804688 111.05688477 C91.52777588 112.19250854 91.52777588 112.19250854 91.55810547 113.35107422 C90.63523968 116.95720124 88.87402196 118.34000255 85.97460938 120.63110352 C82.93385725 121.35555306 79.97183175 121.30488982 76.85742188 121.26220703 C75.49312042 121.27293999 75.49312042 121.27293999 74.10125732 121.28388977 C71.10019425 121.30077348 68.10062568 121.28137591 65.09960938 121.26000977 C63.01122921 121.26083849 60.92284911 121.26329801 58.83447266 121.26731873 C54.45976098 121.27017651 50.08556134 121.25547704 45.7109375 121.22802734 C40.10514764 121.19394496 34.50027338 121.19996315 28.8944397 121.21868992 C24.58268614 121.22926167 20.2711454 121.22032042 15.95941162 121.2053051 C13.89256421 121.20012414 11.82569457 121.20060404 9.7588501 121.20685005 C6.86934672 121.21230426 3.98115121 121.19192021 1.09179688 121.16455078 C0.23865906 121.17107666 -0.61447876 121.17760254 -1.49346924 121.18432617 C-5.45723108 121.1205289 -7.56356481 120.90690185 -11.03613281 118.83311462 C-14.47354426 115.02806826 -14.13678407 110.81964573 -14.16381836 105.97460938 C-13.64781135 96.55069186 -7.96303049 90.90324712 -1.68798828 84.3840332 C0.5957568 81.97620799 2.65636959 79.41216886 4.72460938 76.81860352 C6.83860108 74.237389 8.95347081 71.65689571 11.06835938 69.07641602 C26.80727624 50.07887842 26.80727624 50.07887842 41.97460938 30.63110352 C41.34678055 30.6296785 40.71895172 30.62825348 40.07209778 30.62678528 C33.53419372 30.60709024 26.99722354 30.55282046 20.4597168 30.47851562 C18.02033184 30.45532663 15.58084664 30.44093783 13.14135742 30.43554688 C9.63331563 30.42626445 6.12685265 30.3852857 2.61914062 30.33813477 C1.52938431 30.34206741 0.43962799 30.34600006 -0.68315125 30.35005188 C-8.21796439 30.20504369 -8.21796439 30.20504369 -12.21166992 27.36621094 C-14.0207162 24.6381526 -14.6648848 23.37729471 -14.68945312 20.16235352 C-14.69589844 19.34379883 -14.70234375 18.52524414 -14.70898438 17.68188477 C-14.68964844 16.84012695 -14.6703125 15.99836914 -14.65039062 15.13110352 C-14.66972656 14.2893457 -14.6890625 13.44758789 -14.70898438 12.58032227 C-14.70253906 11.76176758 -14.69609375 10.94321289 -14.68945312 10.09985352 C-14.68381348 9.36186523 -14.67817383 8.62387695 -14.67236328 7.86352539 C-12.48455665 0.31435412 -6.67075626 -0.09243542 0 0 Z " fill="#4A5C90" transform="translate(348.025390625,260.368896484375)"/>
<path d="M0 0 C0.88027359 -0.0071553 1.76054718 -0.01431061 2.66749573 -0.02168274 C5.57117949 -0.03856251 8.47331776 -0.01917152 11.37695312 0.00219727 C13.39807259 0.0013685 15.41919198 -0.00109117 17.44030762 -0.00511169 C21.67379065 -0.00796921 25.90674448 0.00672719 30.14013672 0.03417969 C35.56433383 0.06826214 40.98758468 0.06224368 46.41182709 0.04351711 C50.58461379 0.0329442 54.75718064 0.04188765 58.9299469 0.05690193 C60.92980801 0.06208205 62.9296921 0.06160402 64.92955017 0.05535698 C67.72567037 0.04990132 70.52043998 0.07029107 73.31640625 0.09765625 C74.14149185 0.09113037 74.96657745 0.08460449 75.81666565 0.07788086 C79.73160204 0.14297053 81.73527156 0.37471297 85.1583252 2.44984436 C88.42834816 6.01644581 88.11904504 9.66900083 88.07470703 14.22705078 C87.62078299 21.77923311 83.72445318 26.481822 78.75439453 31.86938477 C76.40693499 34.46027923 74.21511899 37.17132919 72.00585938 39.88012695 C70.21768181 42.07230744 68.41357817 44.25060029 66.60742188 46.42797852 C63.51575561 50.17452134 60.51008982 53.98061592 57.53320312 57.81860352 C53.38341964 63.16714538 49.06147086 68.3357074 44.56787109 73.39941406 C40.06529972 78.54012648 36.1242468 84.07137558 32.15820312 89.63110352 C32.81330872 89.62222107 33.46841431 89.61333862 34.14337158 89.60418701 C40.95633222 89.51575302 47.76913006 89.45538541 54.58251953 89.41137695 C57.12588116 89.3912508 59.66919646 89.36394714 62.21240234 89.3293457 C65.86632717 89.28087382 69.51964068 89.25814435 73.17382812 89.24047852 C74.88182587 89.2095108 74.88182587 89.2095108 76.62432861 89.17791748 C78.21552521 89.17746429 78.21552521 89.17746429 79.83886719 89.17700195 C80.77152405 89.16811951 81.70418091 89.15923706 82.6651001 89.15008545 C85.918703 89.77783398 87.10412392 91.09013664 89.15820312 93.63110352 C89.94200619 96.74443385 89.76196239 99.86737023 89.72070312 103.06860352 C89.75647461 104.33800781 89.75647461 104.33800781 89.79296875 105.63305664 C89.79103516 106.45612305 89.78910156 107.27918945 89.78710938 108.12719727 C89.78783447 108.87155029 89.78855957 109.61590332 89.78930664 110.3828125 C88.79327029 113.93116793 87.02554625 115.35261449 84.15820312 117.63110352 C81.17793275 118.35325716 78.27959104 118.30501372 75.22460938 118.26220703 C74.33458221 118.26936234 73.44455505 118.27651764 72.52755737 118.28388977 C69.59141397 118.30077088 66.65679868 118.28137765 63.72070312 118.26000977 C61.67716343 118.26083852 59.6336238 118.26329813 57.59008789 118.26731873 C53.30952869 118.27017633 49.02949285 118.25547889 44.74902344 118.22802734 C39.26429548 118.19394491 33.78050334 118.19996328 28.29573059 118.21868992 C24.07662162 118.22926244 19.85773011 118.22031973 15.63864136 118.2053051 C13.61645148 118.2001247 11.59423887 118.20060336 9.572052 118.20685005 C6.74480419 118.21230521 3.91889242 118.19191741 1.09179688 118.16455078 C0.25736053 118.17107666 -0.57707581 118.17760254 -1.4367981 118.18432617 C-5.35832087 118.119836 -7.40524147 117.89331992 -10.83886719 115.83091736 C-14.28944304 112.0411565 -14.01221138 107.88311463 -14.04614258 103.03833008 C-13.48284816 93.2461207 -7.14963888 87.36748809 -0.67529297 80.59790039 C1.97220758 77.75791844 4.31084894 74.71949391 6.65820312 71.63110352 C11.37689581 65.55338503 16.25817828 59.61629403 21.16015625 53.68603516 C32.15113842 41.3379402 32.15113842 41.3379402 41.15820312 27.63110352 C40.52593307 27.63776535 39.89366302 27.64442719 39.24223328 27.65129089 C32.67268957 27.71756498 26.10324053 27.76287112 19.53344727 27.79589844 C17.08028304 27.81100233 14.62714589 27.83148673 12.17407227 27.85742188 C8.65178758 27.89373409 5.12985931 27.91081388 1.60742188 27.92407227 C-0.04269646 27.94729805 -0.04269646 27.94729805 -1.72615051 27.97099304 C-3.25739815 27.97133293 -3.25739815 27.97133293 -4.81958008 27.97167969 C-5.71892776 27.97834152 -6.61827545 27.98500336 -7.5448761 27.99186707 C-10.31155202 27.5573219 -11.14466962 26.81089028 -12.84179688 24.63110352 C-14.46348781 21.38772165 -14.15135622 17.87917031 -14.21679688 14.31860352 C-14.27287109 13.17875 -14.27287109 13.17875 -14.33007812 12.01586914 C-14.34748047 10.90308594 -14.34748047 10.90308594 -14.36523438 9.76782227 C-14.38505371 9.09452881 -14.40487305 8.42123535 -14.42529297 7.72753906 C-12.36498664 0.32509117 -6.46819595 -0.09166011 0 0 Z " fill="#4B5D91" transform="translate(503.841796875,234.368896484375)"/>
<path d="M0 0 C2.11930068 0.96512165 4.17027156 2.01054077 6.22485352 3.10644531 C19.18723647 9.57489247 31.60100892 12.85730077 45.84985352 8.29394531 C51.10504991 6.30622854 56.23092347 4.17977496 61.16235352 1.48144531 C64.6618692 -0.06485232 67.06197197 -0.1881487 70.84985352 0.29394531 C74.22187464 2.39209179 76.76970212 4.40540029 77.84985352 8.29394531 C77.66142388 14.22947894 76.9491134 16.82716558 72.84985352 21.29394531 C57.05200446 33.43254818 37.40068437 37.30237737 17.84985352 35.29394531 C5.77702533 33.26418786 -9.78757866 27.14330241 -17.22436523 17.01269531 C-18.85854562 13.97877391 -19.27485458 11.7234179 -19.15014648 8.29394531 C-14.86494377 0.0409623 -9.04029093 -2.96860695 0 0 Z " fill="#737372" transform="translate(259.150146484375,508.7060546875)"/>
<path d="M0 0 C4.00203014 1.45907349 6.60821025 3.57882602 9.5 6.6875 C11.55270768 11.2205628 11.42379499 14.27178241 10 19 C4.56743039 31.04126255 -4.96584376 39.21224178 -17 44.2578125 C-30.04452037 48.829789 -43.23147147 48.26759561 -56 43 C-61.22345114 40.08811574 -67.27606495 36.44787011 -70 31 C-70.85621607 26.39341603 -71.28960857 22.04155556 -68.70703125 17.953125 C-65.63471039 15.00032234 -63.34044055 14.06589172 -59.125 13.25 C-53.86868756 13.6298507 -50.07995537 16.94426579 -46 20 C-41.47390469 22.26304766 -35.33130771 21.6182062 -30.5546875 20.3515625 C-21.78529021 16.77658172 -15.92482022 10.33870681 -10.4453125 2.8203125 C-7.54679497 -0.83025283 -4.42337135 -0.36257142 0 0 Z " fill="#727372" transform="translate(217,414)"/>
<path d="M0 0 C7.61707204 -0.10134036 15.23397053 -0.17144061 22.8515625 -0.21972656 C25.44342546 -0.23985375 28.03524296 -0.26715816 30.62695312 -0.30175781 C34.35037449 -0.35022501 38.07319599 -0.37295816 41.796875 -0.390625 C43.53768341 -0.42159271 43.53768341 -0.42159271 45.31365967 -0.45318604 C46.39447815 -0.45348816 47.47529663 -0.45379028 48.58886719 -0.45410156 C50.01449982 -0.46742523 50.01449982 -0.46742523 51.46893311 -0.48101807 C54.75102802 0.14272955 55.93290916 1.43428278 58 4 C58.78380306 7.11333034 58.60375926 10.23626671 58.5625 13.4375 C58.59827148 14.7069043 58.59827148 14.7069043 58.63476562 16.00195312 C58.63283203 16.82501953 58.63089844 17.64808594 58.62890625 18.49609375 C58.62963135 19.24044678 58.63035645 19.9847998 58.63110352 20.75170898 C57.63461075 24.30169036 55.87006688 25.72178647 53 28 C50.00842166 28.71828865 47.09961457 28.6637685 44.03466797 28.61523438 C42.69480835 28.62355789 42.69480835 28.62355789 41.32788086 28.63204956 C38.38210022 28.64383888 35.43785999 28.61958172 32.4921875 28.59375 C30.44385854 28.59203894 28.3955274 28.59210453 26.34719849 28.59387207 C22.05823773 28.59221934 17.7698 28.57352664 13.48095703 28.54199219 C7.97820385 28.5022648 2.47613411 28.49795301 -3.02673531 28.50545502 C-7.25432621 28.50852105 -11.48176287 28.49641808 -15.70931625 28.47932434 C-17.73873808 28.47228487 -19.76817738 28.46917095 -21.79761124 28.47001648 C-24.62988287 28.468223 -27.46132794 28.44688141 -30.29345703 28.41992188 C-31.13508392 28.42285248 -31.97671082 28.42578308 -32.84384155 28.42880249 C-38.65676883 28.34323117 -38.65676883 28.34323117 -42 25 C-15.27 25 11.46 25 39 25 C38.505 24.01 38.505 24.01 38 23 C38.1875 20 38.1875 20 39 17 C41.0625 15.625 41.0625 15.625 43 15 C43 15.99 43 16.98 43 18 C44.10836423 16.11683841 44.10836423 16.11683841 45 14 C44.505 13.01 44.505 13.01 44 12 C44.66 11.67 45.32 11.34 46 11 C45.505 9.515 45.505 9.515 45 8 C44.01 7.67 43.02 7.34 42 7 C42.66 7 43.32 7 44 7 C44.66 5.02 45.32 3.04 46 1 C30.82 1 15.64 1 0 1 C0 0.67 0 0.34 0 0 Z " fill="#3D528A" transform="translate(535,324)"/>
<path d="M0 0 C1.02342499 -0.00852997 2.04684998 -0.01705994 3.10128784 -0.02584839 C4.22343689 -0.02494202 5.34558594 -0.02403564 6.5017395 -0.02310181 C8.27525284 -0.03317764 8.27525284 -0.03317764 10.08459473 -0.04345703 C13.32849094 -0.05921583 16.5722336 -0.06581301 19.81616354 -0.0670886 C21.84326494 -0.06851006 23.8703395 -0.07277955 25.89743423 -0.07808304 C32.97063145 -0.09658854 40.04375326 -0.10475307 47.11697388 -0.10317993 C53.70800979 -0.10197863 60.29871817 -0.12307705 66.88967121 -0.15466726 C72.55007589 -0.18082957 78.21037361 -0.19154724 83.87083828 -0.19026911 C87.25082035 -0.18975942 90.63051141 -0.1954458 94.0104332 -0.21662521 C97.78125062 -0.2361806 101.55122148 -0.23048727 105.322052 -0.21841431 C106.99920288 -0.23527283 106.99920288 -0.23527283 108.7102356 -0.25247192 C116.27898929 -0.19077113 116.27898929 -0.19077113 120.21124268 2.17279053 C124.97126065 7.62100961 123.81122812 16.18174282 123.38894653 23.05599976 C122.74077508 27.17898926 120.61290167 29.51301314 117.57254028 32.18539429 C116.81457153 32.72099976 116.81457153 32.72099976 116.04129028 33.26742554 C115.71129028 32.60742554 115.38129028 31.94742554 115.04129028 31.26742554 C115.37129028 30.60742554 115.70129028 29.94742554 116.04129028 29.26742554 C112.87462362 31.10075887 112.87462362 31.10075887 111.04129028 34.26742554 C110.71129028 33.60742554 110.38129028 32.94742554 110.04129028 32.26742554 C110.37129028 31.60742554 110.70129028 30.94742554 111.04129028 30.26742554 C110.31941528 30.61805054 109.59754028 30.96867554 108.85379028 31.32992554 C105.72901978 32.3715157 104.15967032 32.15839126 101.04129028 31.26742554 C101.70129028 29.94742554 102.36129028 28.62742554 103.04129028 27.26742554 C104.11379028 27.28805054 105.18629028 27.30867554 106.29129028 27.32992554 C110.27774085 27.28650166 110.27774085 27.28650166 114.04129028 26.26742554 C114.37129028 25.60742554 114.70129028 24.94742554 115.04129028 24.26742554 C116.69129028 24.59742554 118.34129028 24.92742554 120.04129028 25.26742554 C120.09919382 21.97583238 120.13485289 18.68436951 120.16629028 15.39242554 C120.191427 13.98670288 120.191427 13.98670288 120.21707153 12.55258179 C120.2267395 11.20873413 120.2267395 11.20873413 120.23660278 9.83773804 C120.25231323 8.59661255 120.25231323 8.59661255 120.26834106 7.33041382 C120.23431285 5.04344396 120.23431285 5.04344396 118.04129028 3.26742554 C115.78416514 2.95311975 115.78416514 2.95311975 113.13122559 2.98895264 C112.09353531 2.97778915 111.05584503 2.96662567 109.98670959 2.9551239 C108.84375931 2.95296371 107.70080902 2.95080353 106.52322388 2.94857788 C105.32324265 2.93853226 104.12326141 2.92848663 102.88691711 2.9181366 C99.59164827 2.89249304 96.29655262 2.87566945 93.00122404 2.86270857 C89.55917647 2.84710448 86.11721684 2.82030566 82.67523193 2.79467773 C76.15525196 2.74784155 69.63525553 2.71112096 63.11519301 2.67800486 C55.69322637 2.63981757 48.27134794 2.59039859 40.8494556 2.5400207 C25.58013087 2.43662893 10.31075673 2.3473922 -4.95870972 2.26742554 C-5.28870972 3.25742554 -5.61870972 4.24742554 -5.95870972 5.26742554 C-8.02120972 5.95492554 -8.02120972 5.95492554 -9.95870972 6.26742554 C-7.79560944 1.27565566 -5.33165585 0.02006945 0 0 Z " fill="#43568C" transform="translate(410.9587097167969,41.732574462890625)"/>
<path d="M0 0 C0.87983551 -0.0065712 1.75967102 -0.0131424 2.66616821 -0.01991272 C5.58563313 -0.03966684 8.50504658 -0.05131279 11.42456055 -0.0612793 C12.42044882 -0.06535482 13.41633709 -0.06943035 14.44240379 -0.07362938 C19.71306527 -0.09449878 24.98370065 -0.10879694 30.25439453 -0.11816406 C35.70210271 -0.12923251 41.14940288 -0.16363507 46.59696674 -0.20333576 C50.7825548 -0.22946398 54.96804507 -0.23785251 59.1537075 -0.24144554 C61.16197657 -0.24632104 63.17024099 -0.25796231 65.17843056 -0.27648354 C67.98907553 -0.30079499 70.79865738 -0.29992463 73.609375 -0.29296875 C74.43917374 -0.30577881 75.26897247 -0.31858887 76.12391663 -0.33178711 C80.05793508 -0.29629519 82.05916542 -0.08865696 85.50187683 1.99177551 C88.24774626 4.99660252 88.45577434 7.70760176 88.4362793 11.61450195 C88.43805176 12.31518799 88.43982422 13.01587402 88.44165039 13.73779297 C88.01542678 22.03601001 83.17457187 27.51051396 77.4987793 33.17700195 C76.5087793 33.67200195 76.5087793 33.67200195 75.4987793 34.17700195 C76.4887793 30.87700195 77.4787793 27.57700195 78.4987793 24.17700195 C78.9937793 25.16700195 78.9937793 25.16700195 79.4987793 26.17700195 C80.4887793 25.68200195 80.4887793 25.68200195 81.4987793 25.17700195 C81.4987793 23.52700195 81.4987793 21.87700195 81.4987793 20.17700195 C82.9837793 20.67200195 82.9837793 20.67200195 84.4987793 21.17700195 C85.91571687 18.3431268 85.6686806 15.89670822 85.6862793 12.73950195 C85.70045898 11.58579102 85.71463867 10.43208008 85.72924805 9.2434082 C85.73803018 6.00420027 85.73803018 6.00420027 83.4987793 3.17700195 C80.5191379 2.88560052 77.74773626 2.78858503 74.76635742 2.82055664 C73.86219589 2.81851227 72.95803436 2.8164679 72.026474 2.81436157 C69.02745569 2.81134501 66.02898257 2.82985694 63.0300293 2.84887695 C60.95259742 2.85193316 58.87516349 2.85381033 56.79772949 2.85455322 C52.43969913 2.8591618 48.08185299 2.87360893 43.72387695 2.89575195 C38.12805795 2.92403473 32.53238423 2.93496283 26.93650055 2.93943405 C22.64551327 2.94358452 18.35455558 2.95339888 14.06358337 2.96530914 C11.99983458 2.97102022 9.93608291 2.97577614 7.87232971 2.97957611 C4.9919023 2.98642599 2.11159153 3.00005243 -0.76879883 3.01586914 C-2.05772789 3.01754593 -2.05772789 3.01754593 -3.37269592 3.01925659 C-7.57091125 2.93611999 -7.57091125 2.93611999 -11.5012207 4.17700195 C-11.1712207 3.18700195 -10.8412207 2.19700195 -10.5012207 1.17700195 C-7.22635485 -0.46043097 -3.60019715 0.01158143 0 0 Z " fill="#3D528A" transform="translate(503.501220703125,234.822998046875)"/>
<path d="M0 0 C25.08 0 50.16 0 76 0 C73 3 73 3 69.95726013 3.33625793 C68.708647 3.31786362 67.46003387 3.2994693 66.17358398 3.28051758 C65.48385498 3.27441467 64.79412598 3.26831177 64.08349609 3.26202393 C61.80389215 3.23784945 59.52532947 3.19168285 57.24609375 3.14453125 C55.66334997 3.12157018 54.08059051 3.09966775 52.49781799 3.07878113 C49.18133377 3.03172483 45.8652467 2.97421753 42.54907227 2.90893555 C38.29304845 2.82565179 34.0370657 2.76459218 29.78057766 2.71085072 C26.51286557 2.66778876 23.24537309 2.61487267 19.9778614 2.55875206 C18.4081745 2.53262968 16.83844122 2.50915782 15.26867485 2.48835182 C13.07781289 2.45746249 10.88758171 2.41378457 8.69702148 2.36645508 C7.44920395 2.34408279 6.20138641 2.32171051 4.91575623 2.29866028 C2 2 2 2 0 0 Z " fill="#E0DFDB" transform="translate(404,75)"/>
<path d="M0 0 C7.6354334 -0.07593591 15.27076977 -0.12855169 22.90649414 -0.16479492 C25.50516397 -0.17990063 28.10380823 -0.20038634 30.70239258 -0.22631836 C34.43316958 -0.26262243 38.16361013 -0.27970858 41.89453125 -0.29296875 C43.06023148 -0.30845261 44.2259317 -0.32393646 45.42695618 -0.33988953 C47.0482972 -0.34022942 47.0482972 -0.34022942 48.70239258 -0.34057617 C49.65503494 -0.34723801 50.60767731 -0.35389984 51.58918762 -0.36076355 C54.39840692 0.0596192 55.26703814 0.80772011 57 3 C55.25 7.875 55.25 7.875 53 9 C53 8.01 53 7.02 53 6 C52.01 6 51.02 6 50 6 C50.66 6.33 51.32 6.66 52 7 C52 7.66 52 8.32 52 9 C51.34 9 50.68 9 50 9 C49.67 9.66 49.34 10.32 49 11 C48.34 10.01 47.68 9.02 47 8 C44.41619823 7.74969023 44.41619823 7.74969023 42 8 C42.66 7.67 43.32 7.34 44 7 C44.66 5.02 45.32 3.04 46 1 C30.82 1 15.64 1 0 1 C0 0.67 0 0.34 0 0 Z " fill="#2F4482" transform="translate(535,324)"/>
<path d="M0 0 C0.78375 0.825 1.5675 1.65 2.375 2.5 C4.63721264 5.22988506 4.63721264 5.22988506 7 5 C7.33 4.34 7.66 3.68 8 3 C10.9375 3.75 10.9375 3.75 14 5 C15 7 15 7 15 9 C14.34 9.66 13.68 10.32 13 11 C11.98546047 13.32024404 11.98546047 13.32024404 12 16 C13.58855519 18.46900795 13.58855519 18.46900795 16 21 C17.0952916 22.42840949 18.17816138 23.86640894 19.25 25.3125 C20.03117187 26.35857422 20.03117187 26.35857422 20.828125 27.42578125 C21.21484375 27.94527344 21.6015625 28.46476563 22 29 C21.67 29.66 21.34 30.32 21 31 C15.52983596 25.10808327 10.97738887 18.83376234 6.5625 12.125 C5.92634766 11.17625 5.29019531 10.2275 4.63476562 9.25 C0 2.26051457 0 2.26051457 0 0 Z " fill="#6A6B6A" transform="translate(97,499)"/>
<path d="M0 0 C0 0.33 0 0.66 0 1 C-12.87 1.99 -12.87 1.99 -26 3 C-25.01 4.65 -24.02 6.3 -23 8 C-22.67 8.99 -22.34 9.98 -22 11 C-24.75 12.1875 -24.75 12.1875 -28 13 C-30.375 11.625 -30.375 11.625 -32 10 C-31.67 9.01 -31.34 8.02 -31 7 C-31.38932856 4.85744207 -31.38932856 4.85744207 -32 3 C-34.31 2.67 -36.62 2.34 -39 2 C-39 1.67 -39 1.34 -39 1 C-25.98287961 0.17538604 -13.04227517 -0.12368859 0 0 Z M-30 13 C-29.01 13.495 -29.01 13.495 -28 14 C-28.99 14.495 -28.99 14.495 -30 15 C-30 14.34 -30 13.68 -30 13 Z " fill="#F0EEE9" transform="translate(373,639)"/>
<path d="M0 0 C0.33 0.66 0.66 1.32 1 2 C0.06553465 4.03144641 -0.93224776 6.03533587 -2 8 C-1.34 7.67 -0.68 7.34 0 7 C0.99 9.64 1.98 12.28 3 15 C2.05125 15.103125 1.1025 15.20625 0.125 15.3125 C-3.29107501 15.68539295 -3.29107501 15.68539295 -5 19 C-7.625 19.6875 -7.625 19.6875 -10 20 C-10.268125 20.9075 -10.53625 21.815 -10.8125 22.75 C-11.89576294 25.71471963 -12.98359457 27.6169754 -15 30 C-14.40576543 26.28085407 -13.35487413 23.384967 -11.6015625 20.05859375 C-11.12203125 19.14529297 -10.6425 18.23199219 -10.1484375 17.29101562 C-9.64570312 16.34935547 -9.14296875 15.40769531 -8.625 14.4375 C-7.8825 13.01920898 -7.8825 13.01920898 -7.125 11.57226562 C-4.96514397 7.48644172 -2.85968535 3.64450197 0 0 Z " fill="#727372" transform="translate(97,200)"/>
<path d="M0 0 C1.20785156 -0.03738281 2.41570313 -0.07476562 3.66015625 -0.11328125 C7.70769689 0.41256134 9.26139463 1.23301111 11.9375 4.3125 C12.61246521 7.07200893 12.8888143 8.98154866 12.875 11.75 C12.87677246 12.45068604 12.87854492 13.15137207 12.88037109 13.87329102 C12.45414748 22.17150805 7.61329257 27.64601201 1.9375 33.3125 C0.9475 33.8075 0.9475 33.8075 -0.0625 34.3125 C0.9275 31.0125 1.9175 27.7125 2.9375 24.3125 C3.2675 24.9725 3.5975 25.6325 3.9375 26.3125 C4.5975 25.9825 5.2575 25.6525 5.9375 25.3125 C5.9375 23.6625 5.9375 22.0125 5.9375 20.3125 C6.9275 20.6425 7.9175 20.9725 8.9375 21.3125 C10.35443757 18.47862485 10.1074013 16.03220627 10.125 12.875 C10.13917969 11.72128906 10.15335938 10.56757813 10.16796875 9.37890625 C10.17675088 6.13969832 10.17675088 6.13969832 7.9375 3.3125 C4.83536275 2.80029459 4.83536275 2.80029459 1.1796875 2.80078125 C0.51663605 2.78283005 -0.14641541 2.76487885 -0.82955933 2.74638367 C-2.94880803 2.69217076 -5.06783025 2.65835229 -7.1875 2.625 C-8.62372952 2.59183633 -10.0599291 2.55734755 -11.49609375 2.52148438 C-15.01801129 2.43644036 -18.54000759 2.36968127 -22.0625 2.3125 C-22.0625 1.9825 -22.0625 1.6525 -22.0625 1.3125 C-14.71721577 0.67870044 -7.36994546 0.19585485 0 0 Z " fill="#334884" transform="translate(579.0625,234.6875)"/>
<path d="M0 0 C0.66 0.33 1.32 0.66 2 1 C3.54142175 1.11822971 5.08761097 1.17699811 6.63330078 1.20532227 C7.59414581 1.22526749 8.55499084 1.24521271 9.54495239 1.26576233 C11.10438065 1.29083107 11.10438065 1.29083107 12.6953125 1.31640625 C13.75789276 1.33718735 14.82047302 1.35796844 15.91525269 1.37937927 C19.31843438 1.44490261 22.72169489 1.50377273 26.125 1.5625 C28.42839366 1.60568257 30.73177926 1.64929677 33.03515625 1.69335938 C38.69002021 1.80058682 44.34496303 1.90234802 50 2 C49.67 2.66 49.34 3.32 49 4 C32.17 4 15.34 4 -2 4 C-1.34 2.68 -0.68 1.36 0 0 Z " fill="#F5F3EA" transform="translate(538,320)"/>
<path d="M0 0 C0 3 0 3 -0.17578125 5.05078125 C-0.43970107 9.41676911 -0.31278413 11.49764973 2.0625 15.3125 C5.25769433 18.2357629 8.15767846 20.04116941 12 22 C12.0825 21.21625 12.165 20.4325 12.25 19.625 C13 17 13 17 15.0625 15.6875 C16.0215625 15.3471875 16.0215625 15.3471875 17 15 C19 17 19 17 19.1875 20.0625 C19 23 19 23 18 24 C19.32 24.99 20.64 25.98 22 27 C12.41715419 26.20142952 5.69714543 21.78065099 -1 15 C-2.30089831 12.39820337 -2.16840078 10.4030812 -2.1875 7.5 C-2.20167969 6.5203125 -2.21585938 5.540625 -2.23046875 4.53125 C-2 2 -2 2 0 0 Z " fill="#6C6C6B" transform="translate(149,432)"/>
<path d="M0 0 C17.16 0 34.32 0 52 0 C51.67 0.99 51.34 1.98 51 3 C26.25 2.505 26.25 2.505 1 2 C0.67 1.34 0.34 0.68 0 0 Z " fill="#DADADD" transform="translate(493,262)"/>
<path d="M0 0 C0 3.77270895 -0.14837103 7.01485008 -1 10.6875 C-1.185625 11.49574219 -1.37125 12.30398437 -1.5625 13.13671875 C-1.7790625 14.05904297 -1.7790625 14.05904297 -2 15 C-4.64 15 -7.28 15 -10 15 C-8.94729537 16.15811388 -8.94729537 16.15811388 -7 17 C-7.66 18.32 -8.32 19.64 -9 21 C-10.98 20.34 -12.96 19.68 -15 19 C-13.69404215 16.17537878 -12.25372808 13.92855689 -10.21484375 11.58203125 C-9.41916992 10.66067383 -9.41916992 10.66067383 -8.60742188 9.72070312 C-7.78081055 8.77614258 -7.78081055 8.77614258 -6.9375 7.8125 C-6.38255859 7.17119141 -5.82761719 6.52988281 -5.25585938 5.86914062 C-1.25979663 1.25979663 -1.25979663 1.25979663 0 0 Z " fill="#4B5D90" transform="translate(468,90)"/>
<path d="M0 0 C0.66 0 1.32 0 2 0 C3.4453125 1.46875 3.4453125 1.46875 5.125 3.5 C10.61813015 10.20566879 10.61813015 10.20566879 17 16 C20.40715233 16.21664456 20.40715233 16.21664456 23 15 C23.5625 16.9375 23.5625 16.9375 24 19 C23.67 19.33 23.34 19.66 23 20 C24.32 20 25.64 20 27 20 C26.86078125 21.10408203 26.86078125 21.10408203 26.71875 22.23046875 C27.10381553 26.02229459 28.60074125 26.93671852 31.5 29.3125 C32.3353125 30.00988281 33.170625 30.70726562 34.03125 31.42578125 C34.6809375 31.94527344 35.330625 32.46476563 36 33 C31.65079341 33 29.77716306 30.30430122 26.8125 27.4375 C25.6349057 26.32208086 24.45652382 25.20749259 23.27734375 24.09375 C22.70999512 23.55492187 22.14264648 23.01609375 21.55810547 22.4609375 C19.71078722 20.72882336 17.80602511 19.07545893 15.875 17.4375 C12.48271643 14.49558384 9.2593305 11.40107336 6.0625 8.25 C5.12535156 7.32703125 4.18820313 6.4040625 3.22265625 5.453125 C1 3 1 3 0 0 Z " fill="#666867" transform="translate(129,542)"/>
<path d="M0 0 C3.54954166 0.60726241 6.60942491 1.55551047 9.90625 2.99609375 C11.26943359 3.58680664 11.26943359 3.58680664 12.66015625 4.18945312 C13.59730469 4.60130859 14.53445313 5.01316406 15.5 5.4375 C17.36438215 6.24916018 19.22895928 7.06037268 21.09375 7.87109375 C21.91552734 8.23130615 22.73730469 8.59151855 23.58398438 8.96264648 C26.04035466 10.01732689 28.51402319 11.01739719 31 12 C30.01 12.66 29.02 13.32 28 14 C24.26098797 12.75366266 21.01281774 10.86642205 17.5703125 8.9609375 C14.57639537 7.8416311 13.02080334 8.10133808 10 9 C9.67 9.99 9.34 10.98 9 12 C6.83125748 11.49396008 5.00032373 11.00016187 3 10 C3.875 5.125 3.875 5.125 5 4 C4.175 3.525625 3.35 3.05125 2.5 2.5625 C1.675 2.046875 0.85 1.53125 0 1 C0 0.67 0 0.34 0 0 Z " fill="#6A6B6A" transform="translate(332,453)"/>
<path d="M0 0 C0 3.23655184 -0.6550847 4.78752639 -2 7.6875 C-2.556875 8.89986328 -2.556875 8.89986328 -3.125 10.13671875 C-3.41375 10.75160156 -3.7025 11.36648438 -4 12 C-2.68 12.33 -1.36 12.66 0 13 C-0.33 14.32 -0.66 15.64 -1 17 C-3.31 17 -5.62 17 -8 17 C-8 21.62 -8 26.24 -8 31 C-8.66 30.67 -9.32 30.34 -10 30 C-11.69562915 13.04370852 -11.69562915 13.04370852 -6.42333984 6.44238281 C-4.36822212 4.17928577 -2.2610427 2.05916388 0 0 Z " fill="#3E528A" transform="translate(501,318)"/>
<path d="M0 0 C1.65 0 3.3 0 5 0 C5.67163086 1.77050781 5.67163086 1.77050781 6 4 C4.92016602 5.83105469 4.92016602 5.83105469 3.25390625 7.671875 C2.36928711 8.66767578 2.36928711 8.66767578 1.46679688 9.68359375 C0.83837891 10.36550781 0.20996094 11.04742187 -0.4375 11.75 C-1.06205078 12.44738281 -1.68660156 13.14476563 -2.33007812 13.86328125 C-3.87577633 15.5859678 -5.43240211 17.29725891 -7 19 C-7 15.52710626 -6.35830457 13.19201574 -5 10 C-2.875 8.625 -2.875 8.625 -1 8 C-1 6.68 -1 5.36 -1 4 C-1.99 4.33 -2.98 4.66 -4 5 C-3.34 3.68 -2.68 2.36 -2 1 C-1.34 1.33 -0.68 1.66 0 2 C0 1.34 0 0.68 0 0 Z " fill="#47598E" transform="translate(496,101)"/>
<path d="M0 0 C0.66 0.33 1.32 0.66 2 1 C1.67 2.65 1.34 4.3 1 6 C0.34 6 -0.32 6 -1 6 C-2.00217064 9.58327753 -2.00217064 9.58327753 -1 13 C-2.65 13.33 -4.3 13.66 -6 14 C-6.33 12.68 -6.66 11.36 -7 10 C-7.6496875 10.6496875 -7.6496875 10.6496875 -8.3125 11.3125 C-9.875 12.875 -11.4375 14.4375 -13 16 C-13.66 15.34 -14.32 14.68 -15 14 C-10.05 9.38 -5.1 4.76 0 0 Z " fill="#6D6E6C" transform="translate(597,413)"/>
<path d="M0 0 C0 3 0 3 -1.75 5.04296875 C-2.4925 5.75066406 -3.235 6.45835937 -4 7.1875 C-4.7425 7.90292969 -5.485 8.61835937 -6.25 9.35546875 C-6.8275 9.89816406 -7.405 10.44085937 -8 11 C-7.01 11.33 -6.02 11.66 -5 12 C-5.33 12.99 -5.66 13.98 -6 15 C-6.99 15 -7.98 15 -9 15 C-9 15.66 -9 16.32 -9 17 C-9.99 16.67 -10.98 16.34 -12 16 C-14.03861994 17.32688476 -14.03861994 17.32688476 -16 19.25 C-16.680625 19.87390625 -17.36125 20.4978125 -18.0625 21.140625 C-19.72978642 22.74068213 -21.3762223 24.35592507 -23 26 C-23.66 25.67 -24.32 25.34 -25 25 C-16.75 16.75 -8.5 8.5 0 0 Z " fill="#F1F0EB" transform="translate(563,541)"/>
<path d="M0 0 C0.68835938 0.59748047 0.68835938 0.59748047 1.390625 1.20703125 C3.2522698 2.81445985 5.12515727 4.40799992 7 6 C8.11375 6.9590625 8.11375 6.9590625 9.25 7.9375 C9.8275 8.288125 10.405 8.63875 11 9 C11.99 8.67 12.98 8.34 14 8 C14 8.99 14 9.98 14 11 C15.32 11 16.64 11 18 11 C18.33 10.34 18.66 9.68 19 9 C19.66 10.65 20.32 12.3 21 14 C19.35 14.99 17.7 15.98 16 17 C10.37780154 12.33477149 4.83989204 7.48740595 0 2 C0 1.34 0 0.68 0 0 Z " fill="#EFEEE8" transform="translate(271,404)"/>
<path d="M0 0 C0 3.42361471 -0.37400381 3.8093827 -2.51953125 6.28515625 C-3.04740234 6.89810547 -3.57527344 7.51105469 -4.11914062 8.14257812 C-4.67794922 8.77615234 -5.23675781 9.40972656 -5.8125 10.0625 C-6.63331055 11.01866211 -6.63331055 11.01866211 -7.47070312 11.99414062 C-9.89841092 14.78674026 -11.89072721 16.92715147 -15 19 C-15.66 18.01 -16.32 17.02 -17 16 C-16.67 15.34 -16.34 14.68 -16 14 C-13.4375 13.375 -13.4375 13.375 -11 13 C-11.33 12.01 -11.66 11.02 -12 10 C-11.34 9.01 -10.68 8.02 -10 7 C-8.68 7 -7.36 7 -6 7 C-6 6.34 -6 5.68 -6 5 C-6.66 4.34 -7.32 3.68 -8 3 C-5.34771188 1.92474806 -2.71631546 0.90543849 0 0 Z " fill="#41548A" transform="translate(524,76)"/>
<path d="M0 0 C0.99 0 1.98 0 3 0 C2.67 4.95 2.34 9.9 2 15 C1.34 14.01 0.68 13.02 0 12 C-3.58357241 11.74984127 -3.58357241 11.74984127 -7 12 C-7 11.34 -7 10.68 -7 10 C-6.34 10 -5.68 10 -5 10 C-5.33 9.01 -5.66 8.02 -6 7 C-5 5 -5 5 -4 4 C-4.33 3.34 -4.66 2.68 -5 2 C-4.01 2 -3.02 2 -2 2 C-1.67 2.66 -1.34 3.32 -1 4 C-0.67 2.68 -0.34 1.36 0 0 Z " fill="#4D5F92" transform="translate(590,328)"/>
<path d="M0 0 C0.99 0.33 1.98 0.66 3 1 C3.33 1.99 3.66 2.98 4 4 C7.8063457 3.32829194 11.35206816 2.27253436 15 1 C12.43937755 3.950475 9.53328543 5.44996218 6.0625 7.1875 C5.02222656 7.71730469 3.98195313 8.24710938 2.91015625 8.79296875 C0 10 0 10 -4 10 C-2.99806563 6.20696275 -2.18975773 3.28463659 0 0 Z " fill="#6A6A68" transform="translate(471,601)"/>
<path d="M0 0 C2.67710191 1.33855096 2.95129094 2.72058088 4.125 5.4375 C4.47820312 6.24058594 4.83140625 7.04367187 5.1953125 7.87109375 C6 10 6 10 6 12 C6.99 11.67 7.98 11.34 9 11 C9.99 11.33 10.98 11.66 12 12 C12 12.99 12 13.98 12 15 C12.30050829 16.40326639 12.63590136 17.79937393 13 19.1875 C13.33 20.445625 13.66 21.70375 14 23 C13.34 23 12.68 23 12 23 C11.67 23.66 11.34 24.32 11 25 C2.3690205 8.29157175 2.3690205 8.29157175 0 0 Z " fill="#686767" transform="translate(77,460)"/>
<path d="M0 0 C2.3833718 0.95334872 3.73395425 1.57734082 5.12060547 3.78027344 C6.11191736 6.28249658 6.22971914 8.08190686 6.1953125 10.765625 C6.18886719 11.65507812 6.18242188 12.54453125 6.17578125 13.4609375 C6.15902344 14.38132813 6.14226563 15.30171875 6.125 16.25 C6.11597656 17.18585938 6.10695313 18.12171875 6.09765625 19.0859375 C6.07413636 21.39088657 6.04126853 23.6953116 6 26 C5.34 26.33 4.68 26.66 4 27 C4 19.74 4 12.48 4 5 C3.34 5 2.68 5 2 5 C1.67 5.99 1.34 6.98 1 8 C0.67 5.36 0.34 2.72 0 0 Z M-2 5 C0 6 0 6 0 6 Z " fill="#43578B" transform="translate(530,165)"/>
<path d="M0 0 C2.97 0.495 2.97 0.495 6 1 C6.125 3.875 6.125 3.875 6 7 C5.34 7.66 4.68 8.32 4 9 C4 9.33 4 9.66 4 10 C2.25034642 10.05429959 0.50020213 10.09292823 -1.25 10.125 C-2.22453125 10.14820313 -3.1990625 10.17140625 -4.203125 10.1953125 C-7.0196498 9.99862781 -8.60949036 9.44568916 -11 8 C-8.69 8 -6.38 8 -4 8 C-4 7.01 -4 6.02 -4 5 C-3.01 4.67 -2.02 4.34 -1 4 C-1 5.32 -1 6.64 -1 8 C-0.34 8.33 0.32 8.66 1 9 C0.67 6.03 0.34 3.06 0 0 Z " fill="#6B6A6A" transform="translate(311,627)"/>
<path d="M0 0 C0 3 0 3 -2 6 C0.0745356 6.1490712 0.0745356 6.1490712 2 5 C0.42771844 8.85923655 -1.79032965 11.36093771 -5 14 C-8.8125 14.8125 -8.8125 14.8125 -12 15 C-8.19695186 9.80789528 -4.23841458 4.84390238 0 0 Z " fill="#41558B" transform="translate(367,320)"/>
<path d="M0 0 C2.6109279 1.10059187 4.63937626 2.39276682 7 4 C5.68 4.33 4.36 4.66 3 5 C2.67 4.34 2.34 3.68 2 3 C-0.3140622 2.26924352 -2.64828869 1.59861742 -5 1 C-4.67 1.99 -4.34 2.98 -4 4 C-4.66 4 -5.32 4 -6 4 C-6 4.66 -6 5.32 -6 6 C-7.11375 5.979375 -8.2275 5.95875 -9.375 5.9375 C-12.83215921 5.73619282 -12.83215921 5.73619282 -15 7 C-12.07402441 -0.07110768 -7.13799066 -1.13776697 0 0 Z " fill="#6C6C6B" transform="translate(257,508)"/>
<path d="M0 0 C0 4.27053927 -2.30125972 5.82898018 -5 9 C-5 9.66 -5 10.32 -5 11 C-6.11375 10.814375 -7.2275 10.62875 -8.375 10.4375 C-11.82568861 9.68319343 -11.82568861 9.68319343 -14 11 C-14 9.68 -14 8.36 -14 7 C-9.7214529 4.81295111 -5.4740136 2.76249021 -1 1 C-0.67 0.67 -0.34 0.34 0 0 Z " fill="#495D8F" transform="translate(458,154)"/>
<path d="M0 0 C2.79405061 1.32284697 5.22950055 2.84398592 7.75 4.625 C12.03295381 7.37027678 14.99480051 7.44689281 20 7 C19.67 7.99 19.34 8.98 19 10 C19.66 10.33 20.32 10.66 21 11 C21 11.99 21 12.98 21 14 C20.01 14.495 20.01 14.495 19 15 C16.20221636 13.07121814 13.41290963 11.13052062 10.625 9.1875 C9.8309375 8.64029297 9.036875 8.09308594 8.21875 7.52929688 C7.45820313 6.99755859 6.69765625 6.46582031 5.9140625 5.91796875 C5.2123291 5.43094482 4.5105957 4.9439209 3.78759766 4.44213867 C2 3 2 3 0 0 Z " fill="#686968" transform="translate(165,576)"/>
<path d="M0 0 C1.13643966 3.40931897 0.86747764 4.00335456 -0.4375 7.1875 C-0.72496094 7.90292969 -1.01242187 8.61835937 -1.30859375 9.35546875 C-1.53675781 9.89816406 -1.76492188 10.44085937 -2 11 C-2.66 11 -3.32 11 -4 11 C-4 10.34 -4 9.68 -4 9 C-5.32 9.99 -6.64 10.98 -8 12 C-7.67 12.33 -7.34 12.66 -7 13 C-7.4375 15.0625 -7.4375 15.0625 -8 17 C-9.32 17 -10.64 17 -12 17 C-12 16.34 -12 15.68 -12 15 C-13.32 15.33 -14.64 15.66 -16 16 C-14.70059609 12.10178828 -13.19521194 11.70849959 -9.6875 9.6875 C-5.11039326 6.8936816 -2.43526289 4.75456089 0 0 Z " fill="#BBBBB7" transform="translate(336,523)"/>
<path d="M0 0 C0 5.28 0 10.56 0 16 C-0.33 16 -0.66 16 -1 16 C-1.33 14.35 -1.66 12.7 -2 11 C-2.66 11 -3.32 11 -4 11 C-4 11.66 -4 12.32 -4 13 C-5.32 12.34 -6.64 11.68 -8 11 C-7.67 9.68 -7.34 8.36 -7 7 C-6.34 7 -5.68 7 -5 7 C-4.67 5.02 -4.34 3.04 -4 1 C-1 0 -1 0 0 0 Z " fill="#3C5189" transform="translate(437,267)"/>
<path d="M0 0 C7.75045704 1.65173675 7.75045704 1.65173675 11 5 C12.59203546 5.93363435 14.22123764 6.80565877 15.875 7.625 C16.71804687 8.05039062 17.56109375 8.47578125 18.4296875 8.9140625 C20.96353181 9.98459247 23.2914939 10.56314418 26 11 C26 11.66 26 12.32 26 13 C27.98 13.66 29.96 14.32 32 15 C28.20701891 16.26432703 27.4111861 15.53917074 23.88671875 13.83203125 C22.3852832 13.10983398 22.3852832 13.10983398 20.85351562 12.37304688 C19.80873047 11.85806641 18.76394531 11.34308594 17.6875 10.8125 C16.65431641 10.31685547 15.62113281 9.82121094 14.55664062 9.31054688 C9.46863647 6.83997654 4.53613891 4.39624858 0 1 C0 0.67 0 0.34 0 0 Z " fill="#636462" transform="translate(199,599)"/>
<path d="M0 0 C0.99 0 1.98 0 3 0 C1.62820313 7.48252838 -0.92163279 14.05604954 -4 21 C-4.33 20.34 -4.66 19.68 -5 19 C-4.0625 16.375 -4.0625 16.375 -3 14 C-3.99 14 -4.98 14 -6 14 C-6.33 14.99 -6.66 15.98 -7 17 C-7.66 17 -8.32 17 -9 17 C-8.67 15.35 -8.34 13.7 -8 12 C-6.824375 11.8453125 -6.824375 11.8453125 -5.625 11.6875 C-2.66954819 11.22404978 -2.66954819 11.22404978 -1 8 C-0.54860541 5.9507906 -0.54860541 5.9507906 -0.375 3.8125 C-0.25125 2.554375 -0.1275 1.29625 0 0 Z " fill="#6C6C6B" transform="translate(618,437)"/>
<path d="M0 0 C0.33 0.66 0.66 1.32 1 2 C-2.96 7.94 -2.96 7.94 -7 14 C-9.95201883 11.04798117 -11.13277572 8.04704664 -12 4 C-10.02 4.66 -8.04 5.32 -6 6 C-5.195625 5.195625 -4.39125 4.39125 -3.5625 3.5625 C-2.375 2.375 -1.1875 1.1875 0 0 Z " fill="#6F6E6F" transform="translate(592,499)"/>
<path d="M0 0 C0.33 0 0.66 0 1 0 C1.33 1.65 1.66 3.3 2 5 C2.66 4.34 3.32 3.68 4 3 C4 2.34 4 1.68 4 1 C6.31 1 8.62 1 11 1 C11 1.66 11 2.32 11 3 C10.01 3 9.02 3 8 3 C8.33 3.99 8.66 4.98 9 6 C7.8553125 6.1546875 7.8553125 6.1546875 6.6875 6.3125 C3.65328846 7.08869365 2.68992232 7.38062041 1 10 C0.45441653 12.68024502 0.22433636 15.26309645 0 18 C-0.33 18 -0.66 18 -1 18 C-1.02707139 15.75006641 -1.04642829 13.50003905 -1.0625 11.25 C-1.07410156 9.99703125 -1.08570313 8.7440625 -1.09765625 7.453125 C-1.02021027 4.71463499 -0.82780815 2.58119707 0 0 Z " fill="#676868" transform="translate(57,312)"/>
<path d="M0 0 C1.23593906 3.70781718 0.56984348 4.52981968 -1 8 C-1.37125 8.928125 -1.7425 9.85625 -2.125 10.8125 C-2.41375 11.534375 -2.7025 12.25625 -3 13 C-4.65 13 -6.3 13 -8 13 C-7.48118887 8.8275894 -6.28848726 6.74583179 -3.4375 3.6875 C-2.79683594 2.99011719 -2.15617188 2.29273438 -1.49609375 1.57421875 C-1.00238281 1.05472656 -0.50867188 0.53523438 0 0 Z " fill="#EDEBE4" transform="translate(547,309)"/>
<path d="M0 0 C4.55564061 1.58532809 8.31475769 3.99003081 12.3125 6.625 C12.95767578 7.04523438 13.60285156 7.46546875 14.26757812 7.8984375 C15.84760724 8.92838241 17.42416047 9.96365628 19 11 C18.01 11.66 17.02 12.32 16 13 C15.5875 12.54625 15.175 12.0925 14.75 11.625 C12.93591905 9.94049626 11.24714373 9.00734029 9 8 C9.33 8.33 9.66 8.66 10 9 C9.34 9.66 8.68 10.32 8 11 C5.27573689 8.64722731 4.1858237 6.37503669 3 3 C1.68 3 0.36 3 -1 3 C-0.67 2.01 -0.34 1.02 0 0 Z " fill="#686868" transform="translate(304,436)"/>
<path d="M0 0 C0.99 0.33 1.98 0.66 3 1 C3 6.61 3 12.22 3 18 C2.34 18.33 1.68 18.66 1 19 C-0.25433458 15.23699626 -0.10695422 11.72789091 -0.0625 7.8125 C-0.05798828 7.06291016 -0.05347656 6.31332031 -0.04882812 5.54101562 C-0.03706354 3.69397617 -0.01912865 1.84697787 0 0 Z " fill="#D5D7D9" transform="translate(488,329)"/>
<path d="M0 0 C0.33 0.66 0.66 1.32 1 2 C0.28735352 3.78759766 0.28735352 3.78759766 -0.87109375 5.9140625 C-1.28037109 6.67460937 -1.68964844 7.43515625 -2.11132812 8.21875 C-2.54896484 9.0128125 -2.98660156 9.806875 -3.4375 10.625 C-3.87126953 11.42679687 -4.30503906 12.22859375 -4.75195312 13.0546875 C-5.82756988 15.04044151 -6.91047213 17.0218546 -8 19 C-8.84062397 15.90226756 -9.08935201 13.21667249 -9 10 C-8.360625 9.87625 -7.72125 9.7525 -7.0625 9.625 C-6.381875 9.41875 -5.70125 9.2125 -5 9 C-4.67 8.34 -4.34 7.68 -4 7 C-4.66 6.67 -5.32 6.34 -6 6 C-5.34 5.01 -4.68 4.02 -4 3 C-3.34 3 -2.68 3 -2 3 C-1.34 2.01 -0.68 1.02 0 0 Z " fill="#636462" transform="translate(607,471)"/>
<path d="M0 0 C0.33 0 0.66 0 1 0 C1.50508972 3.89519106 2.00317733 7.79124657 2.5 11.6875 C2.64308594 12.79029297 2.78617187 13.89308594 2.93359375 15.02929688 C3.06894531 16.09599609 3.20429687 17.16269531 3.34375 18.26171875 C3.46943359 19.24100342 3.59511719 20.22028809 3.72460938 21.22924805 C3.98432795 23.84232089 4.05025329 26.37635968 4 29 C3.34 28.01 2.68 27.02 2 26 C1.443125 25.54625 0.88625 25.0925 0.3125 24.625 C-0.120625 24.08875 -0.55375 23.5525 -1 23 C-0.79503906 22.00033203 -0.79503906 22.00033203 -0.5859375 20.98046875 C0.22250296 16.86820161 0.1053791 12.8665627 0.0625 8.6875 C0.05798828 7.85154297 0.05347656 7.01558594 0.04882812 6.15429688 C0.03710548 4.10283351 0.01917203 2.05140727 0 0 Z " fill="#686967" transform="translate(81,371)"/>
<path d="M0 0 C0.33 0 0.66 0 1 0 C0.85761163 2.04190981 0.71092972 4.08352045 0.5625 6.125 C0.48128906 7.26195312 0.40007812 8.39890625 0.31640625 9.5703125 C0.02269035 12.7540478 -0.43124313 15.85510907 -1 19 C-0.34 19.33 0.32 19.66 1 20 C0.34 20 -0.32 20 -1 20 C-1.33 22.97 -1.66 25.94 -2 29 C-2.33 29 -2.66 29 -3 29 C-3.26258186 19.13859233 -3.14871156 9.44613469 0 0 Z " fill="#6B6B6A" transform="translate(190,209)"/>
<path d="M0 0 C0.66 0.33 1.32 0.66 2 1 C1.566875 1.8353125 1.566875 1.8353125 1.125 2.6875 C-0.0413253 5.08494645 -1.0339881 7.51596939 -2 10 C-2.99 10 -3.98 10 -5 10 C-5 10.66 -5 11.32 -5 12 C-7.90548882 14.04169485 -9.40142046 15 -13 15 C-12.34644531 14.38125 -12.34644531 14.38125 -11.6796875 13.75 C-7.27883681 9.48250842 -3.54395804 4.99788955 0 0 Z " fill="#6B6C6B" transform="translate(208,415)"/>
<path d="M0 0 C1.32 0.66 2.64 1.32 4 2 C3.3125 4.4375 3.3125 4.4375 2 7 C-0.625 7.8125 -0.625 7.8125 -3 8 C-3.4021875 9.36125 -3.4021875 9.36125 -3.8125 10.75 C-4.89576294 13.71471963 -5.98359457 15.6169754 -8 18 C-7.39733215 13.49272353 -5.63400206 10.1412037 -3.4375 6.1875 C-2.9434668 5.2912793 -2.9434668 5.2912793 -2.43945312 4.37695312 C-1.63226733 2.91466002 -0.81695083 1.4568601 0 0 Z " fill="#686768" transform="translate(90,212)"/>
<path d="M0 0 C1.14680101 3.44040303 0.87124738 4.00270384 -0.43359375 7.23046875 C-0.9121582 8.43413086 -0.9121582 8.43413086 -1.40039062 9.66210938 C-1.74263672 10.49548828 -2.08488281 11.32886719 -2.4375 12.1875 C-2.77587891 13.03248047 -3.11425781 13.87746094 -3.46289062 14.74804688 C-4.30025552 16.83556216 -5.14620197 18.91916409 -6 21 C-7.13583456 17.28272326 -6.66670026 15.52948291 -5 12 C-6.32 12.33 -7.64 12.66 -9 13 C-9.33 12.01 -9.66 11.02 -10 10 C-8.35 9.67 -6.7 9.34 -5 9 C-4.67 8.01 -4.34 7.02 -4 6 C-2.89131683 3.78263366 -1.50559539 1.96382007 0 0 Z " fill="#C2C1BC" transform="translate(205,154)"/>
<path d="M0 0 C0.66 0 1.32 0 2 0 C2.71484375 1.578125 2.71484375 1.578125 3 4 C1.94290501 6.38494456 0.8682111 8.51234067 -0.4375 10.75 C-0.77587891 11.35199219 -1.11425781 11.95398438 -1.46289062 12.57421875 C-2.29768265 14.05568065 -3.14741494 15.52870608 -4 17 C-4.33 16.34 -4.66 15.68 -5 15 C-4.22265625 13.0546875 -4.22265625 13.0546875 -3.0625 10.875 C-2.49208984 9.78832031 -2.49208984 9.78832031 -1.91015625 8.6796875 C-1.60980469 8.12539062 -1.30945313 7.57109375 -1 7 C-1.99 6.67 -2.98 6.34 -4 6 C-1.125 1.125 -1.125 1.125 0 0 Z " fill="#686868" transform="translate(236,147)"/>
<path d="M0 0 C1.33332095 2.6666419 0.67102033 4.16680303 0 7 C0.66 7.33 1.32 7.66 2 8 C2 8.66 2 9.32 2 10 C-1 11 -1 11 -2.9375 10.5 C-5.33487153 9.91881902 -6.66161306 10.33607385 -9 11 C-8.06558465 9.72689688 -7.12732889 8.456612 -6.1875 7.1875 C-5.66542969 6.47980469 -5.14335937 5.77210938 -4.60546875 5.04296875 C-3.16871123 3.21468607 -1.68184237 1.60103312 0 0 Z " fill="#40538A" transform="translate(428,138)"/>
<path d="M0 0 C0.66 0.33 1.32 0.66 2 1 C1.67 2.32 1.34 3.64 1 5 C-0.32 5 -1.64 5 -3 5 C-5.5654594 7.5654594 -5.54046087 9.47686668 -6 13 C-7.65 12.67 -9.3 12.34 -11 12 C-11.33 11.01 -11.66 10.02 -12 9 C-8.04 6.03 -4.08 3.06 0 0 Z " fill="#686968" transform="translate(175,119)"/>
<path d="M0 0 C1.66611905 -0.042721 3.33382885 -0.04063832 5 0 C5.33 0.33 5.66 0.66 6 1 C8.35694954 0.90968426 10.71153582 0.75311872 13.0625 0.5625 C14.99802734 0.40974609 14.99802734 0.40974609 16.97265625 0.25390625 C17.97167969 0.17011719 18.97070312 0.08632813 20 0 C15.52818465 4.47181535 7.92164386 4.10372052 1.9362793 4.13623047 C-1.04328917 4.11999688 -4.02127861 4.07148931 -7 4 C-7 3.67 -7 3.34 -7 3 C-5.5459375 2.814375 -5.5459375 2.814375 -4.0625 2.625 C-2.5465625 2.315625 -2.5465625 2.315625 -1 2 C-0.67 1.34 -0.34 0.68 0 0 Z " fill="#686968" transform="translate(289,540)"/>
<path d="M0 0 C0.66 1.32 1.32 2.64 2 4 C-3.1365998 8.19885542 -8.50672692 12.23021692 -15 14 C-17.265625 13.59765625 -17.265625 13.59765625 -19 13 C-18.16855469 12.67386719 -17.33710938 12.34773437 -16.48046875 12.01171875 C-14.85044922 11.35623047 -14.85044922 11.35623047 -13.1875 10.6875 C-11.56908203 10.04361328 -11.56908203 10.04361328 -9.91796875 9.38671875 C-5.35586797 7.21865212 -3.08520278 3.93629321 0 0 Z " fill="#696A69" transform="translate(329,526)"/>
<path d="M0 0 C4.48229987 1.49130725 7.89693926 3.98135827 11.5625 6.875 C12.12646484 7.30941406 12.69042969 7.74382812 13.27148438 8.19140625 C16.38813688 10.61911452 19.2772527 13.13745394 22 16 C16.47618067 14.13164934 12.47410644 10.65822649 7.9375 7.09375 C5.30338873 5.21624516 3.04521433 4.02999896 0 3 C0 2.01 0 1.02 0 0 Z " fill="#C0BFBB" transform="translate(273,446)"/>
<path d="M0 0 C3.2828117 5.69020694 3.10993482 11.62378015 3 18 C0.525 17.01 0.525 17.01 -2 16 C-2 15.01 -2 14.02 -2 13 C-1.01 12.67 -0.02 12.34 1 12 C0.34 11.01 -0.32 10.02 -1 9 C-1.33 8.34 -1.66 7.68 -2 7 C-1.34 7 -0.68 7 0 7 C0 4.69 0 2.38 0 0 Z " fill="#696969" transform="translate(213,283)"/>
<path d="M0 0 C0.33 0.66 0.66 1.32 1 2 C0.34 2 -0.32 2 -1 2 C-0.67 2.99 -0.34 3.98 0 5 C-2.97 7.475 -2.97 7.475 -6 10 C-7.32 8.68 -8.64 7.36 -10 6 C-6.7 4.02 -3.4 2.04 0 0 Z " fill="#6B6B6B" transform="translate(198,105)"/>
<path d="M0 0 C3.26309597 2.72931793 4.90051326 6.32166572 6.75 10.0625 C7.07871094 10.69994141 7.40742187 11.33738281 7.74609375 11.99414062 C8.56378581 13.63124982 9.28949826 15.31360322 10 17 C9.67 17.66 9.34 18.32 9 19 C8.66226563 18.36191406 8.32453125 17.72382813 7.9765625 17.06640625 C7.53054687 16.24011719 7.08453125 15.41382813 6.625 14.5625 C5.96371094 13.32693359 5.96371094 13.32693359 5.2890625 12.06640625 C4.16581441 9.86533422 4.16581441 9.86533422 2 9 C2 9.66 2 10.32 2 11 C1.01 10.67 0.02 10.34 -1 10 C-0.835 9.236875 -0.67 8.47375 -0.5 7.6875 C0.09145396 4.96403764 0.09145396 4.96403764 0 2 C0 1.34 0 0.68 0 0 Z " fill="#6C6C6A" transform="translate(102,455)"/>
<path d="M0 0 C1 2 1 2 0.4375 3.875 C-0.11989698 6.58235674 0.59668102 7.68865109 2 10 C1.34 10 0.68 10 0 10 C0 10.66 0 11.32 0 12 C-0.61875 12.12375 -1.2375 12.2475 -1.875 12.375 C-4.19120832 12.87197356 -4.19120832 12.87197356 -6 15 C-5.54979057 9.14727744 -2.96160773 4.91779881 0 0 Z " fill="#BFBEBA" transform="translate(106,240)"/>
<path d="M0 0 C0 3 0 3 -1.625 4.875 C-4.35943254 7.32159753 -7.18136918 9.65114098 -10 12 C-11.051875 13.11375 -11.051875 13.11375 -12.125 14.25 C-14.1206041 16.11256383 -15.33267295 16.61895328 -18 17 C-18 16.34 -18 15.68 -18 15 C-16.55235738 13.70958086 -15.03910851 12.49232866 -13.5 11.3125 C-8.85358404 7.69200209 -4.39080929 3.92474574 0 0 Z " fill="#646667" transform="translate(526,540)"/>
<path d="M0 0 C4.0185454 2.06357737 6.33140744 3.735819 8 8 C8.15576636 13.35446852 7.23801317 17.63572138 4 22 C3.67 21.34 3.34 20.68 3 20 C3.93578995 17.64018187 4.93347808 15.30368736 6 13 C5.34 13 4.68 13 4 13 C4.4021875 11.6696875 4.4021875 11.6696875 4.8125 10.3125 C5.40139941 6.80232899 5.40139941 6.80232899 2.5625 4.25 C1.716875 3.5075 0.87125 2.765 0 2 C0 1.34 0 0.68 0 0 Z " fill="#6C6D6A" transform="translate(220,416)"/>
<path d="M0 0 C0.66 0 1.32 0 2 0 C2 1.32 2 2.64 2 4 C2.66 4.33 3.32 4.66 4 5 C0.91190305 6.76462683 -0.23312136 7 -4 7 C-4 7.66 -4 8.32 -4 9 C-4.99 9.33 -5.98 9.66 -7 10 C-5.32598022 6.04322598 -2.86850715 3.15535787 0 0 Z M4 2 C4.66 2 5.32 2 6 2 C6 2.66 6 3.32 6 4 C5.34 4 4.68 4 4 4 C4 3.34 4 2.68 4 2 Z " fill="#41538B" transform="translate(344,348)"/>
<path d="M0 0 C0 2.62113708 -0.31292445 4.50935112 -1 7 C0.32 7.66 1.64 8.32 3 9 C2.67 9.66 2.34 10.32 2 11 C1.01 11 0.02 11 -1 11 C-1.66 10.34 -2.32 9.68 -3 9 C-3.61875 9.309375 -4.2375 9.61875 -4.875 9.9375 C-6.25 10.625 -7.625 11.3125 -9 12 C-7.55575365 8.76138697 -5.74227753 6.38030837 -3.375 3.75 C-2.74335938 3.04359375 -2.11171875 2.3371875 -1.4609375 1.609375 C-0.97882813 1.07828125 -0.49671875 0.5471875 0 0 Z " fill="#3F528A" transform="translate(438,126)"/>
<path d="M0 0 C1.56393356 3.97376829 0.36145292 6.81377903 -0.9375 10.75 C-1.31777344 11.92046875 -1.69804687 13.0909375 -2.08984375 14.296875 C-2.39019531 15.18890625 -2.69054687 16.0809375 -3 17 C-3.33 17 -3.66 17 -4 17 C-4.66 13.7 -5.32 10.4 -6 7 C-4.7934375 6.6596875 -4.7934375 6.6596875 -3.5625 6.3125 C-2.716875 5.879375 -1.87125 5.44625 -1 5 C-0.10613836 2.45224694 -0.10613836 2.45224694 0 0 Z " fill="#C0BEBA" transform="translate(196,178)"/>
<path d="M0 0 C1.0625 1.8125 1.0625 1.8125 2 4 C1.67 4.99 1.34 5.98 1 7 C-2.4375 8.625 -2.4375 8.625 -6 10 C-6.99 10.495 -6.99 10.495 -8 11 C-6.63629701 8.00779732 -5.05091917 5.70973471 -2.875 3.25 C-2.33617188 2.63640625 -1.79734375 2.0228125 -1.2421875 1.390625 C-0.62730469 0.70226562 -0.62730469 0.70226562 0 0 Z " fill="#696A69" transform="translate(122,167)"/>
<path d="M0 0 C0.33 1.32 0.66 2.64 1 4 C1.66 4 2.32 4 3 4 C3.33 4.99 3.66 5.98 4 7 C3.01 7.99 2.02 8.98 1 10 C0.67 9.67 0.34 9.34 0 9 C-0.66 12.63 -1.32 16.26 -2 20 C-2.33 20 -2.66 20 -3 20 C-3.35482211 12.78528371 -2.1591338 6.87581298 0 0 Z " fill="#C1C0BC" transform="translate(87,296)"/>
<path d="M0 0 C0 3.85318348 -0.185291 7.23197087 -1 11 C-1.99 10.34 -2.98 9.68 -4 9 C-5.98 10.32 -7.96 11.64 -10 13 C-8.48446596 9.52224821 -6.4226544 7.0442016 -3.875 4.25 C-3.15054687 3.45078125 -2.42609375 2.6515625 -1.6796875 1.828125 C-0.84824219 0.92320313 -0.84824219 0.92320313 0 0 Z " fill="#3B5088" transform="translate(468,90)"/>
<path d="M0 0 C0.66 0 1.32 0 2 0 C1.67 1.32 1.34 2.64 1 4 C6.94 4.99 6.94 4.99 13 6 C13 6.33 13 6.66 13 7 C6.91221201 7.11227478 1.00400944 7.09163808 -5 6 C-5.33 5.34 -5.66 4.68 -6 4 C-4.7934375 3.566875 -4.7934375 3.566875 -3.5625 3.125 C-0.8673532 2.26737432 -0.8673532 2.26737432 0 0 Z " fill="#6A6A6A" transform="translate(401,496)"/>
<path d="M0 0 C1.45707274 2.91414548 0.68877573 4.86920121 0 8 C-1.0625 10.375 -1.0625 10.375 -2 12 C-2.99 12 -3.98 12 -5 12 C-6.68798827 13.43750191 -6.68798827 13.43750191 -8 15 C-6.62712658 11.30123909 -4.93644547 8.0485524 -2.875 4.6875 C-2.33617187 3.80449219 -1.79734375 2.92148437 -1.2421875 2.01171875 C-0.83226562 1.34785156 -0.42234375 0.68398438 0 0 Z " fill="#6E6E6E" transform="translate(577,474)"/>
<path d="M0 0 C1.32 0.66 2.64 1.32 4 2 C3.49477778 6.37859255 0.82172778 8.81651224 -2 12 C-2.625 10.125 -2.625 10.125 -3 8 C-2.34 7.34 -1.68 6.68 -1 6 C-1 5.01 -1 4.02 -1 3 C-0.67 2.01 -0.34 1.02 0 0 Z " fill="#42558C" transform="translate(538,311)"/>
<path d="M0 0 C1.31625194 2.63250388 0.74813658 3.80179056 0.0625 6.625 C-0.13214844 7.44226563 -0.32679687 8.25953125 -0.52734375 9.1015625 C-0.76130859 10.04128906 -0.76130859 10.04128906 -1 11 C-1.99 11 -2.98 11 -4 11 C-4.99 12.98 -5.98 14.96 -7 17 C-8 14 -8 14 -6.6015625 10.8984375 C-5.95299053 9.71824916 -5.29367954 8.54391309 -4.625 7.375 C-4.295 6.776875 -3.965 6.17875 -3.625 5.5625 C-1.1932398 1.1932398 -1.1932398 1.1932398 0 0 Z " fill="#BFBEBA" transform="translate(116,221)"/>
<path d="M0 0 C0 0.99 0 1.98 0 3 C0.66 3.66 1.32 4.32 2 5 C2 6.32 2 7.64 2 9 C0.02 9 -1.96 9 -4 9 C-4.33 9.66 -4.66 10.32 -5 11 C-5.66 10.67 -6.32 10.34 -7 10 C-3.535 5.05 -3.535 5.05 0 0 Z " fill="#6B6C6B" transform="translate(562,498)"/>
<path d="M0 0 C2 1 2 1 3.10546875 3.8359375 C3.46253906 5.00382812 3.81960937 6.17171875 4.1875 7.375 C4.55230469 8.53773438 4.91710937 9.70046875 5.29296875 10.8984375 C6 14 6 14 5 17 C4.34 14.69 3.68 12.38 3 10 C2.01 10.33 1.02 10.66 0 11 C-1.125 6.25 -1.125 6.25 0 4 C0 2.68 0 1.36 0 0 Z " fill="#707170" transform="translate(90,422)"/>
<path d="M0 0 C0 0.99 0 1.98 0 3 C-0.33 3.33 -0.66 3.66 -1 4 C-1 4.99 -1 5.98 -1 7 C-2.0725 7.433125 -3.145 7.86625 -4.25 8.3125 C-7.16272646 9.55321513 -9.56036166 10.95070379 -12 13 C-10.61536056 9.87250593 -9.00477577 7.7595015 -6.5625 5.375 C-5.96566406 4.78460938 -5.36882812 4.19421875 -4.75390625 3.5859375 C-3 2 -3 2 0 0 Z " fill="#686866" transform="translate(147,141)"/>
<path d="M0 0 C0.99 0.495 0.99 0.495 2 1 C2 1.66 2 2.32 2 3 C2.61875 3.268125 3.2375 3.53625 3.875 3.8125 C6 5 6 5 8 8 C7.01 8.495 7.01 8.495 6 9 C6.33 10.65 6.66 12.3 7 14 C6.34 14 5.68 14 5 14 C4.16235732 12.04350603 3.33000941 10.08474444 2.5 8.125 C2.0359375 7.03445313 1.571875 5.94390625 1.09375 4.8203125 C0 2 0 2 0 0 Z " fill="#F1EFEB" transform="translate(227,333)"/>
<path d="M0 0 C2.16099373 2.16099373 2.71563716 3.5210418 3.6875 6.375 C3.95949219 7.14585937 4.23148438 7.91671875 4.51171875 8.7109375 C5.04278009 11.20055308 4.81115526 12.61553018 4 15 C3.54625 14.195625 3.0925 13.39125 2.625 12.5625 C1.25274335 9.91143428 1.25274335 9.91143428 -1 9 C-0.67 6.03 -0.34 3.06 0 0 Z " fill="#C0BEBB" transform="translate(193,321)"/>
<path d="M0 0 C1.42600325 4.27800976 -0.54362936 6.86765922 -2.4375 10.6875 C-2.77587891 11.38939453 -3.11425781 12.09128906 -3.46289062 12.81445312 C-4.29981348 14.54723706 -5.14877393 16.27419752 -6 18 C-7.39195915 13.82412255 -5.82323219 11.86525224 -4 8 C-4.66 8 -5.32 8 -6 8 C-5.67 7.01 -5.34 6.02 -5 5 C-4.01 4.67 -3.02 4.34 -2 4 C-0.79117904 1.99983534 -0.79117904 1.99983534 0 0 Z " fill="#6B6C6C" transform="translate(104,240)"/>
<path d="M0 0 C0.66 1.32 1.32 2.64 2 4 C0.7934375 4.6496875 0.7934375 4.6496875 -0.4375 5.3125 C-3.27846354 6.80474002 -3.27846354 6.80474002 -4 10 C-6.5625 11.1875 -6.5625 11.1875 -9 12 C-7.55575365 8.76138697 -5.74227753 6.38030837 -3.375 3.75 C-2.74335938 3.04359375 -2.11171875 2.3371875 -1.4609375 1.609375 C-0.97882813 1.07828125 -0.49671875 0.5471875 0 0 Z " fill="#42548B" transform="translate(452,109)"/>
<path d="M0 0 C-2 2 -2 2 -5 3 C-4.34 3.33 -3.68 3.66 -3 4 C-3 4.66 -3 5.32 -3 6 C-4.65 6 -6.3 6 -8 6 C-8.33 5.34 -8.66 4.68 -9 4 C-10.65 4.33 -12.3 4.66 -14 5 C-9.94779194 1.59614523 -5.27662976 -1.75887659 0 0 Z " fill="#666867" transform="translate(226,94)"/>
<path d="M0 0 C5.34844008 0.53484401 9.35796103 2.46690767 14 5 C11 6 11 6 8.9375 5.4375 C8.298125 5.293125 7.65875 5.14875 7 5 C6.34 5.66 5.68 6.32 5 7 C4.67 6.01 4.34 5.02 4 4 C1.98491642 3.26676204 1.98491642 3.26676204 0 3 C0 2.01 0 1.02 0 0 Z " fill="#EEEDEA" transform="translate(227,615)"/>
<path d="M0 0 C0.66 0 1.32 0 2 0 C2.74609375 1.671875 2.74609375 1.671875 3 4 C1.34765625 6.578125 1.34765625 6.578125 -0.9375 9.25 C-2.06478516 10.58804687 -2.06478516 10.58804687 -3.21484375 11.953125 C-3.80394531 12.62859375 -4.39304687 13.3040625 -5 14 C-5 10.38970831 -4.03907418 7.44193324 -3 4 C-2.67 4.66 -2.34 5.32 -2 6 C-1.34 5.67 -0.68 5.34 0 5 C0 3.35 0 1.7 0 0 Z " fill="#3D5189" transform="translate(585,255)"/>
<path d="M0 0 C0.66 0.33 1.32 0.66 2 1 C2 1.66 2 2.32 2 3 C5.465 2.505 5.465 2.505 9 2 C6.49484216 4.50515784 4.38931835 5.05099086 1 6 C-0.32 6 -1.64 6 -3 6 C-2.625 3.5625 -2.625 3.5625 -2 1 C-1.34 0.67 -0.68 0.34 0 0 Z " fill="#EFEDE8" transform="translate(509,461)"/>
<path d="M0 0 C3.85714286 2.57142857 3.85714286 2.57142857 5 6 C4.01 6.495 4.01 6.495 3 7 C3 6.34 3 5.68 3 5 C2.34 5 1.68 5 1 5 C1 5.66 1 6.32 1 7 C0.34 7 -0.32 7 -1 7 C-1.33 6.34 -1.66 5.68 -2 5 C-3.32 5.99 -4.64 6.98 -6 8 C-4.55746343 4.63408134 -2.66735273 2.48952921 0 0 Z " fill="#6A6968" transform="translate(129,159)"/>
<path d="M0 0 C3 1 3 1 4.25 2.5625 C5.41804157 6.35863511 4.8158092 9.10921768 4 13 C3.01 13.66 2.02 14.32 1 15 C0.34 14.01 -0.32 13.02 -1 12 C-0.01 11.34 0.98 10.68 2 10 C2.42905061 6.05273438 2.08466413 3.38757921 0 0 Z " fill="#6D6E6C" transform="translate(332,512)"/>
<path d="M0 0 C0.928125 0.350625 1.85625 0.70125 2.8125 1.0625 C5.9802953 2.32382628 5.9802953 2.32382628 9 1 C9.061875 1.763125 9.12375 2.52625 9.1875 3.3125 C9.76935262 6.23051809 9.76935262 6.23051809 12.5625 7.8125 C13.366875 8.204375 14.17125 8.59625 15 9 C14.67 9.66 14.34 10.32 14 11 C11.85038384 9.54699102 9.70532871 8.0879574 7.5625 6.625 C6.95083984 6.2125 6.33917969 5.8 5.70898438 5.375 C1.11328125 2.2265625 1.11328125 2.2265625 0 0 Z " fill="#EFECE8" transform="translate(304,434)"/>
<path d="M0 0 C1.5 1.1875 1.5 1.1875 3 3 C3.1875 5.6875 3.1875 5.6875 3 8 C1.68 8 0.36 8 -1 8 C-1.33 7.34 -1.66 6.68 -2 6 C-2.99 6 -3.98 6 -5 6 C-3.35 4.02 -1.7 2.04 0 0 Z " fill="#40558B" transform="translate(539,271)"/>
<path d="M0 0 C-2.30368736 1.06652192 -4.64018187 2.06421005 -7 3 C-7.66 2.67 -8.32 2.34 -9 2 C-9 2.66 -9 3.32 -9 4 C-10.32 3.34 -11.64 2.68 -13 2 C-3.60674157 -1.20224719 -3.60674157 -1.20224719 0 0 Z M-12 4 C-11.34 4.33 -10.68 4.66 -10 5 C-10.33 5.99 -10.66 6.98 -11 8 C-11.99 8 -12.98 8 -14 8 C-13.34 6.68 -12.68 5.36 -12 4 Z " fill="#6C6C6A" transform="translate(417,604)"/>
<path d="M0 0 C1.93922422 0.45098238 3.87633594 0.91105559 5.8125 1.375 C6.89144531 1.63023437 7.97039062 1.88546875 9.08203125 2.1484375 C12 3 12 3 15 5 C14.15695312 4.91621094 13.31390625 4.83242188 12.4453125 4.74609375 C11.34960938 4.64425781 10.25390625 4.54242188 9.125 4.4375 C8.03445313 4.33308594 6.94390625 4.22867187 5.8203125 4.12109375 C3.04847977 3.77360596 3.04847977 3.77360596 1 5 C0.67 3.35 0.34 1.7 0 0 Z M4 4 C4.99 4.33 5.98 4.66 7 5 C6.01 5 5.02 5 4 5 C4 4.67 4 4.34 4 4 Z " fill="#646565" transform="translate(364,466)"/>
<path d="M0 0 C2.34917898 2.15341406 3.82443004 4.21667937 5.25 7.0625 C5.78367188 8.10083984 5.78367188 8.10083984 6.328125 9.16015625 C6.54984375 9.76730469 6.7715625 10.37445313 7 11 C6.67 11.66 6.34 12.32 6 13 C5.401875 12.01 4.80375 11.02 4.1875 10 C3.465625 9.01 2.74375 8.02 2 7 C1.01 7 0.02 7 -1 7 C-1 6.34 -1 5.68 -1 5 C-1.66 4.67 -2.32 4.34 -3 4 C-2.01 3.34 -1.02 2.68 0 2 C0 1.34 0 0.68 0 0 Z " fill="#C1BFBC" transform="translate(207,359)"/>
<path d="M0 0 C1.98 0 3.96 0 6 0 C6 3 6 3 3.5 5.6875 C2.675 6.450625 1.85 7.21375 1 8 C1 7.01 1 6.02 1 5 C0.34 4.67 -0.32 4.34 -1 4 C-0.34 4 0.32 4 1 4 C0.67 2.68 0.34 1.36 0 0 Z " fill="#E4E2DE" transform="translate(537,264)"/>
<path d="M0 0 C5.66710699 1.31793186 7.66437233 3.48709197 11 8 C10.4225 7.690625 9.845 7.38125 9.25 7.0625 C7.15705816 6.07416636 5.25464725 5.4831387 3 5 C2.67 5.66 2.34 6.32 2 7 C1.87625 6.195625 1.7525 5.39125 1.625 4.5625 C1.315625 3.2940625 1.315625 3.2940625 1 2 C0.34 1.67 -0.32 1.34 -1 1 C-0.67 0.67 -0.34 0.34 0 0 Z " fill="#EEEDE9" transform="translate(146,563)"/>
<path d="M0 0 C0 4.27053927 -2.30125972 5.82898018 -5 9 C-5 9.66 -5 10.32 -5 11 C-6.32 10.67 -7.64 10.34 -9 10 C-8.34 10 -7.68 10 -7 10 C-7 8.02 -7 6.04 -7 4 C-5.5459375 3.2884375 -5.5459375 3.2884375 -4.0625 2.5625 C-1.19522563 1.29806053 -1.19522563 1.29806053 0 0 Z " fill="#395089" transform="translate(458,154)"/>
<path d="M0 0 C0.33 0.66 0.66 1.32 1 2 C1.99 2 2.98 2 4 2 C2.33248852 5.94139078 -0.22710649 8.7892812 -3 12 C-3 8.98509443 -2.48047265 7.13135886 -1.5 4.3125 C-1.2215625 3.50425781 -0.943125 2.69601563 -0.65625 1.86328125 C-0.4396875 1.24839844 -0.223125 0.63351563 0 0 Z " fill="#3C4F88" transform="translate(470,134)"/>
<path d="M0 0 C1.13643966 3.40931897 0.86747764 4.00335456 -0.4375 7.1875 C-0.72496094 7.90292969 -1.01242187 8.61835937 -1.30859375 9.35546875 C-1.53675781 9.89816406 -1.76492188 10.44085937 -2 11 C-2.66 11 -3.32 11 -4 11 C-4 10.34 -4 9.68 -4 9 C-5.65 9.66 -7.3 10.32 -9 11 C-7.88625 9.948125 -7.88625 9.948125 -6.75 8.875 C-4.02182777 6.02281994 -2.08697046 3.3236937 0 0 Z " fill="#C2C0BC" transform="translate(336,523)"/>
<path d="M0 0 C2.97 0.33 5.94 0.66 9 1 C9 1.33 9 1.66 9 2 C7.35 2 5.7 2 4 2 C4 2.66 4 3.32 4 4 C4.66 4.33 5.32 4.66 6 5 C5.67 5.99 5.34 6.98 5 8 C4.01 7.67 3.02 7.34 2 7 C0 1.94736842 0 1.94736842 0 0 Z " fill="#696968" transform="translate(392,474)"/>
<path d="M0 0 C1.65 0.33 3.3 0.66 5 1 C4.8125 3.375 4.8125 3.375 4 6 C1.4375 7.3125 1.4375 7.3125 -1 8 C-0.67 5.36 -0.34 2.72 0 0 Z " fill="#6B6C6A" transform="translate(508,581)"/>
<path d="M0 0 C0.66 0.33 1.32 0.66 2 1 C-0.97 3.64 -3.94 6.28 -7 9 C-7.66 8.67 -8.32 8.34 -9 8 C-8.34 6.35 -7.68 4.7 -7 3 C-6.67 3.66 -6.34 4.32 -6 5 C-5.67 4.01 -5.34 3.02 -5 2 C-3 1.375 -3 1.375 -1 1 C-0.67 0.67 -0.34 0.34 0 0 Z " fill="#BFBEBB" transform="translate(519,544)"/>
<path d="M0 0 C3.3 0.33 6.6 0.66 10 1 C6.92000054 4.67230705 4.7517398 5.56802365 0 6 C0.33 5.34 0.66 4.68 1 4 C0.67 2.68 0.34 1.36 0 0 Z " fill="#BEBDB8" transform="translate(184,429)"/>
<path d="M0 0 C0 3.86695678 -1.41909971 6.5088452 -3 10 C-3.66 9.67 -4.32 9.34 -5 9 C-5.33 9.99 -5.66 10.98 -6 12 C-6.99 12.33 -7.98 12.66 -9 13 C-7.47987323 7.59510481 -3.72614782 4.01507372 0 0 Z " fill="#354B86" transform="translate(501,318)"/>
<path d="M0 0 C0.33 0 0.66 0 1 0 C1 1.98 1 3.96 1 6 C2.32 6.33 3.64 6.66 5 7 C4.67 7.99 4.34 8.98 4 10 C3.01 10.33 2.02 10.66 1 11 C0.34 10.67 -0.32 10.34 -1 10 C-1.125 3.375 -1.125 3.375 0 0 Z " fill="#676968" transform="translate(59,299)"/>
<path d="M0 0 C1.32 0 2.64 0 4 0 C2.63629701 2.99220268 1.05091917 5.29026529 -1.125 7.75 C-1.93324219 8.67039063 -1.93324219 8.67039063 -2.7578125 9.609375 C-3.16773438 10.06828125 -3.57765625 10.5271875 -4 11 C-4.33 10.01 -4.66 9.02 -5 8 C-4.01 7.34 -3.02 6.68 -2 6 C-1.33820153 4.01954441 -1.33820153 4.01954441 -1 2 C-0.67 1.34 -0.34 0.68 0 0 Z " fill="#384C85" transform="translate(481,123)"/>
<path d="M0 0 C0.33 0.99 0.66 1.98 1 3 C1.99 3.33 2.98 3.66 4 4 C3.34 5.32 2.68 6.64 2 8 C0.02 7.34 -1.96 6.68 -4 6 C-2.84826645 3.53199953 -1.95216435 1.95216435 0 0 Z " fill="#3F548B" transform="translate(457,103)"/>
<path d="M0 0 C0.268125 0.639375 0.53625 1.27875 0.8125 1.9375 C1.88667752 4.33131686 1.88667752 4.33131686 5 5 C4.34 5.66 3.68 6.32 3 7 C0.875 6.625 0.875 6.625 -1 6 C-1.33 4.35 -1.66 2.7 -2 1 C-1.34 0.67 -0.68 0.34 0 0 Z M2 1 C4 2 4 2 4 2 Z " fill="#757474" transform="translate(440,614)"/>
<path d="M0 0 C3.5786304 1.65167557 6.74820188 3.78286492 10 6 C9.67 6.66 9.34 7.32 9 8 C8.34 8 7.68 8 7 8 C6.67 7.34 6.34 6.68 6 6 C4.02 6.99 4.02 6.99 2 8 C1.67 7.34 1.34 6.68 1 6 C1.66 6 2.32 6 3 6 C2.01 4.02 1.02 2.04 0 0 Z " fill="#F1EFEA" transform="translate(164,577)"/>
<path d="M0 0 C1.98 0 3.96 0 6 0 C6 0.66 6 1.32 6 2 C6.66 2.66 7.32 3.32 8 4 C7.34 4.66 6.68 5.32 6 6 C5.34 5.34 4.68 4.68 4 4 C3.34 4.66 2.68 5.32 2 6 C0 3 0 3 0 0 Z " fill="#6B6D6C" transform="translate(402,476)"/>
<path d="M0 0 C0 0.99 0 1.98 0 3 C0.66 3.33 1.32 3.66 2 4 C2 4.66 2 5.32 2 6 C0.88625 6.474375 -0.2275 6.94875 -1.375 7.4375 C-3.26710994 8.25306463 -5.15712709 9.07856355 -7 10 C-5.33248852 6.05860922 -2.77289351 3.2107188 0 0 Z " fill="#384F87" transform="translate(526,287)"/>
<path d="M0 0 C2.64 0.33 5.28 0.66 8 1 C6.60667426 4.36720387 5.0210714 5.9859524 2 8 C2.66 6.35 3.32 4.7 4 3 C2.68 2.34 1.36 1.68 0 1 C0 0.67 0 0.34 0 0 Z " fill="#6D6D6C" transform="translate(138,178)"/>
<path d="M0 0 C0 3.69418201 -1.28179295 5.77836178 -3 9 C-3.66 8.34 -4.32 7.68 -5 7 C-5.99 6.67 -6.98 6.34 -8 6 C-5.36 4.02 -2.72 2.04 0 0 Z " fill="#C2C0BC" transform="translate(583,459)"/>
<path d="M0 0 C1.32 1.32 2.64 2.64 4 4 C3.875 7.6875 3.875 7.6875 3 11 C2.01 11.495 2.01 11.495 1 12 C0.67 8.04 0.34 4.08 0 0 Z " fill="#7B7C7B" transform="translate(57,306)"/>
<path d="M0 0 C0 3.77910478 -0.99703962 4.46106101 -3.5 7.1875 C-4.47453125 8.26064453 -4.47453125 8.26064453 -5.46875 9.35546875 C-5.9740625 9.89816406 -6.479375 10.44085938 -7 11 C-7 7.53122824 -6.38150201 5.17745463 -5 2 C-2.9375 1.1875 -2.9375 1.1875 -1 1 C-0.67 0.67 -0.34 0.34 0 0 Z " fill="#374D88" transform="translate(496,109)"/>
<path d="M0 0 C0 0.66 0 1.32 0 2 C0.66 2.66 1.32 3.32 2 4 C-2.82360189 4.19294408 -6.49646738 3.75747614 -11 2 C-3.28571429 0 -3.28571429 0 0 0 Z " fill="#686966" transform="translate(291,630)"/>
<path d="M0 0 C1.32 1.32 2.64 2.64 4 4 C3.34 5.65 2.68 7.3 2 9 C1.01 9 0.02 9 -1 9 C-0.67 6.03 -0.34 3.06 0 0 Z M4 3 C6 4 6 4 6 4 Z " fill="#787978" transform="translate(59,389)"/>
<path d="M0 0 C2 3 2 3 2 6 C1.01 6.66 0.02 7.32 -1 8 C-1.99 7.34 -2.98 6.68 -4 6 C-2.84826645 3.53199953 -1.95216435 1.95216435 0 0 Z " fill="#F0ECE6" transform="translate(435,286)"/>
<path d="M0 0 C2 1.8125 2 1.8125 4 4 C4 4.99 4 5.98 4 7 C2.02 7.99 2.02 7.99 0 9 C-0.33 8.67 -0.66 8.34 -1 8 C-0.82364548 5.30917128 -0.38164079 2.67148554 0 0 Z " fill="#F0EDE8" transform="translate(218,205)"/>
<path d="M0 0 C0.66 0.33 1.32 0.66 2 1 C0.515 3.475 0.515 3.475 -1 6 C-1.66 5.34 -2.32 4.68 -3 4 C-6.465 5.485 -6.465 5.485 -10 7 C-10 6.34 -10 5.68 -10 5 C-8.38007835 4.13624104 -6.75388139 3.28424146 -5.125 2.4375 C-4.22007812 1.96183594 -3.31515625 1.48617187 -2.3828125 0.99609375 C-1.20332031 0.50302734 -1.20332031 0.50302734 0 0 Z " fill="#C5C4C0" transform="translate(219,126)"/>
<path d="M0 0 C0.99 0.66 1.98 1.32 3 2 C3.1875 4.625 3.1875 4.625 3 7 C2.01 7 1.02 7 0 7 C0 7.66 0 8.32 0 9 C-2.31 9 -4.62 9 -7 9 C-7 8.67 -7 8.34 -7 8 C-6.195625 7.87625 -5.39125 7.7525 -4.5625 7.625 C-3.716875 7.41875 -2.87125 7.2125 -2 7 C-1.67 6.34 -1.34 5.68 -1 5 C-0.34 5 0.32 5 1 5 C0.67 3.35 0.34 1.7 0 0 Z " fill="#80807E" transform="translate(316,629)"/>
<path d="M0 0 C-4.27745474 2.85163649 -6.69777386 3.09082394 -11.6875 2.5625 C-12.68136719 2.46066406 -13.67523438 2.35882812 -14.69921875 2.25390625 C-15.45847656 2.17011719 -16.21773438 2.08632813 -17 2 C-17 1.67 -17 1.34 -17 1 C-11.27959989 0.1679418 -5.77759884 -0.12036664 0 0 Z " fill="#656666" transform="translate(380,611)"/>
<path d="M0 0 C0.66 0.33 1.32 0.66 2 1 C1.34 2.65 0.68 4.3 0 6 C-0.66 6 -1.32 6 -2 6 C-2 5.34 -2 4.68 -2 4 C-3.98 4.33 -5.96 4.66 -8 5 C-5.45378681 2.99940392 -3.01962385 1.20784954 0 0 Z " fill="#6B6B6B" transform="translate(456,587)"/>
<path d="M0 0 C3.65316671 1.24976756 4.78065836 1.67098753 7 5 C5.02 4.34 3.04 3.68 1 3 C1 3.66 1 4.32 1 5 C-0.32 4.67 -1.64 4.34 -3 4 C-2 2 -2 2 0 0 Z " fill="#EFEDE9" transform="translate(176,586)"/>
<path d="M0 0 C0.99 0.33 1.98 0.66 3 1 C2.67 2.98 2.34 4.96 2 7 C0.68 7 -0.64 7 -2 7 C-2.6875 5.1875 -2.6875 5.1875 -3 3 C-1.5625 1.25 -1.5625 1.25 0 0 Z " fill="#757474" transform="translate(531,458)"/>
<path d="M0 0 C0 3.81094059 -1.00717021 5.77024137 -3 9 C-5.6875 10.375 -5.6875 10.375 -8 11 C-6.63629701 8.00779732 -5.05091917 5.70973471 -2.875 3.25 C-2.33617187 2.63640625 -1.79734375 2.0228125 -1.2421875 1.390625 C-0.62730469 0.70226562 -0.62730469 0.70226562 0 0 Z " fill="#344B86" transform="translate(354,336)"/>
<path d="M0 0 C0 4.38968456 -2.12805101 5.76905739 -5 9 C-5.99 7.68 -6.98 6.36 -8 5 C-6.68 4.67 -5.36 4.34 -4 4 C-4 3.34 -4 2.68 -4 2 C-2.68 1.34 -1.36 0.68 0 0 Z " fill="#3A4E86" transform="translate(575,272)"/>
<path d="M0 0 C1.35439668 2.70879335 1.06501451 5.00933268 1 8 C-2.36720387 6.60667426 -3.9859524 5.0210714 -6 2 C-4.02 1.34 -2.04 0.68 0 0 Z " fill="#797977" transform="translate(221,185)"/>
<path d="M0 0 C0.33 0.66 0.66 1.32 1 2 C-0.21484375 4.8203125 -0.21484375 4.8203125 -1.9375 8.125 C-2.50339844 9.22070312 -3.06929687 10.31640625 -3.65234375 11.4453125 C-4.09707031 12.28835937 -4.54179687 13.13140625 -5 14 C-5.33 14 -5.66 14 -6 14 C-5.67 11.69 -5.34 9.38 -5 7 C-4.34 7 -3.68 7 -3 7 C-2.690625 6.030625 -2.38125 5.06125 -2.0625 4.0625 C-1 1 -1 1 0 0 Z " fill="#C3C2BD" transform="translate(213,138)"/>
<path d="M0 0 C5.94 0 11.88 0 18 0 C18 0.99 18 1.98 18 3 C12 2.33333333 6 1.66666667 0 1 C0 0.67 0 0.34 0 0 Z " fill="#DEDDDA" transform="translate(459,77)"/>
<path d="M0 0 C5.15171623 -0.09038099 9.91913204 0.15318867 15 1 C15 1.33 15 1.66 15 2 C12.03 2 9.06 2 6 2 C6 2.66 6 3.32 6 4 C5.34 4 4.68 4 4 4 C4 3.01 4 2.02 4 1 C2.68 0.67 1.36 0.34 0 0 Z " fill="#F7F5F1" transform="translate(301,637)"/>
<path d="M0 0 C0.33 0.66 0.66 1.32 1 2 C0.01 3.32 -0.98 4.64 -2 6 C-3.65 5.67 -5.3 5.34 -7 5 C-4.87219421 2.65941363 -2.88437779 1.29299694 0 0 Z " fill="#6E6D6C" transform="translate(317,512)"/>
<path d="M0 0 C0 2.97 0 5.94 0 9 C-2 7.25 -2 7.25 -4 5 C-4 3.68 -4 2.36 -4 1 C-2 0 -2 0 0 0 Z " fill="#676868" transform="translate(213,228)"/>
<path d="M0 0 C0.66 0 1.32 0 2 0 C1.36934243 3.21852831 0.21979305 5.50801069 -1.5625 8.25 C-2.01753906 8.95640625 -2.47257813 9.6628125 -2.94140625 10.390625 C-3.29074219 10.92171875 -3.64007813 11.4528125 -4 12 C-4.33 11.34 -4.66 10.68 -5 10 C-4.02616054 8.31791365 -3.02304948 6.65261839 -2 5 C-1.63215869 3.6757713 -1.28797019 2.34386088 -1 1 C-0.67 0.67 -0.34 0.34 0 0 Z " fill="#656565" transform="translate(245,135)"/>
<path d="M0 0 C0.33 0.66 0.66 1.32 1 2 C0.34 2 -0.32 2 -1 2 C-1.66 3.65 -2.32 5.3 -3 7 C-4.98 7 -6.96 7 -9 7 C-6.24479785 4.04070881 -3.53372712 1.96318174 0 0 Z " fill="#636563" transform="translate(186,112)"/>
<path d="M0 0 C2.31 0.33 4.62 0.66 7 1 C7.33 2.32 7.66 3.64 8 5 C5 6 5 6 2 5 C2 4.01 2 3.02 2 2 C1.34 1.34 0.68 0.68 0 0 Z " fill="#F0EFEA" transform="translate(277,632)"/>
<path d="M0 0 C0.66 0.66 1.32 1.32 2 2 C3.32392972 3.01241685 4.65599167 4.01439389 6 5 C3.03 5.66 0.06 6.32 -3 7 C-2.01 6.01 -1.02 5.02 0 4 C-0.66 3.67 -1.32 3.34 -2 3 C-2 2.34 -2 1.68 -2 1 C-1.34 0.67 -0.68 0.34 0 0 Z " fill="#686968" transform="translate(444,615)"/>
<path d="M0 0 C0.66 1.32 1.32 2.64 2 4 C0.35 6.31 -1.3 8.62 -3 11 C-3.33 9.68 -3.66 8.36 -4 7 C-4.33 6.34 -4.66 5.68 -5 5 C-3.68 5 -2.36 5 -1 5 C-0.67 3.35 -0.34 1.7 0 0 Z " fill="#636565" transform="translate(581,512)"/>
<path d="M0 0 C5.45769811 -0.11138159 10.61509359 0.08342019 16 1 C16 1.33 16 1.66 16 2 C13.36 2 10.72 2 8 2 C8 2.66 8 3.32 8 4 C7.34 3.67 6.68 3.34 6 3 C6 2.67 6 2.34 6 2 C3.03 1.505 3.03 1.505 0 1 C0 0.67 0 0.34 0 0 Z " fill="#C5C3BF" transform="translate(402,503)"/>
<path d="M0 0 C0.99 0 1.98 0 3 0 C3.6875 1.6875 3.6875 1.6875 4 4 C2.5625 6.75 2.5625 6.75 1 9 C0.08941469 5.92677456 -0.08886184 3.19902639 0 0 Z " fill="#6B6B6B" transform="translate(598,481)"/>
<path d="M0 0 C0.33 0.66 0.66 1.32 1 2 C2.65 1.34 4.3 0.68 6 0 C4.44499019 3.81684226 1.96404505 6.19195732 -1 9 C-0.67 6.03 -0.34 3.06 0 0 Z " fill="#395088" transform="translate(388,333)"/>
<path d="M0 0 C1.32 0.66 2.64 1.32 4 2 C2.25 6.875 2.25 6.875 0 8 C0 7.01 0 6.02 0 5 C-0.66 5 -1.32 5 -2 5 C-2 3 -2 3 0 1 C0 0.67 0 0.34 0 0 Z " fill="#3F5188" transform="translate(588,325)"/>
<path d="M0 0 C0.99 0.33 1.98 0.66 3 1 C1.44499019 4.81684226 -1.03595495 7.19195732 -4 10 C-2.66666667 6.66666667 -1.33333333 3.33333333 0 0 Z " fill="#394E86" transform="translate(547,303)"/>
<path d="M0 0 C1.46726798 3.81489674 0.43336419 6.29011622 -1 10 C-1.103125 9.360625 -1.20625 8.72125 -1.3125 8.0625 C-1.539375 7.381875 -1.76625 6.70125 -2 6 C-2.99 5.67 -3.98 5.34 -5 5 C-4.34 4.34 -3.68 3.68 -3 3 C-2.34 3.33 -1.68 3.66 -1 4 C-0.67 2.68 -0.34 1.36 0 0 Z " fill="#656566" transform="translate(220,191)"/>
<path d="M0 0 C1.18771723 3.42943519 0.80226223 5.37784675 -0.4375 8.75 C-0.86869141 9.94882813 -0.86869141 9.94882813 -1.30859375 11.171875 C-1.65083984 12.07679688 -1.65083984 12.07679688 -2 13 C-2.33 13 -2.66 13 -3 13 C-2.88490339 11.58249437 -2.75746342 10.16598831 -2.625 8.75 C-2.55539063 7.96109375 -2.48578125 7.1721875 -2.4140625 6.359375 C-1.98492887 3.914123 -1.21399362 2.15163097 0 0 Z " fill="#6A6B69" transform="translate(197,181)"/>
<path d="M0 0 C0 4.38968456 -2.12805101 5.76905739 -5 9 C-5 6.16032769 -4.59732819 3.76264289 -4 1 C-3.01 1 -2.02 1 -1 1 C-0.67 0.67 -0.34 0.34 0 0 Z " fill="#6B6C6B" transform="translate(138,187)"/>
<path d="M0 0 C0.66 0.99 1.32 1.98 2 3 C-1.25978366 5.22257977 -4.44774296 7.28564986 -8 9 C-7.04270084 7.87411986 -6.08412105 6.7493285 -5.125 5.625 C-4.59132812 4.99851563 -4.05765625 4.37203125 -3.5078125 3.7265625 C-2.38567993 2.44163349 -1.20628025 1.20628025 0 0 Z " fill="#C4C2BD" transform="translate(158,168)"/>
<path d="M0 0 C2 2 4 4 6 6 C3.36 5.67 0.72 5.34 -2 5 C-2 2 -2 2 0 0 Z " fill="#BEBDB9" transform="translate(264,595)"/>
<path d="M0 0 C0.33 0.66 0.66 1.32 1 2 C-0.98 4.97 -2.96 7.94 -5 11 C-6 9 -6 9 -5.3125 6.625 C-3.90601689 3.81203377 -2.32442123 2.0919791 0 0 Z " fill="#636363" transform="translate(592,499)"/>
<path d="M0 0 C0 3 0 3 -1.3125 4.5 C-1.869375 4.995 -2.42625 5.49 -3 6 C-3.556875 6.556875 -4.11375 7.11375 -4.6875 7.6875 C-5.120625 8.120625 -5.55375 8.55375 -6 9 C-6.66 8.34 -7.32 7.68 -8 7 C-5.36 4.69 -2.72 2.38 0 0 Z " fill="#636565" transform="translate(590,420)"/>
<path d="M0 0 C0 4.38968456 -2.12805101 5.76905739 -5 9 C-5 6.29745539 -4.96569331 4.49470772 -4 2 C-1.9375 0.75 -1.9375 0.75 0 0 Z " fill="#F1F0EA" transform="translate(386,294)"/>
<path d="M0 0 C0 0.66 0 1.32 0 2 C-3.75 3.125 -3.75 3.125 -6 2 C-6.33 2.66 -6.66 3.32 -7 4 C-7 2.68 -7 1.36 -7 0 C-3.86650268 -1.04449911 -3.01031744 -0.93423645 0 0 Z " fill="#686869" transform="translate(243,88)"/>
<path d="M0 0 C1.37478516 0.01740234 1.37478516 0.01740234 2.77734375 0.03515625 C3.69644531 0.04417969 4.61554688 0.05320313 5.5625 0.0625 C6.27277344 0.07410156 6.98304688 0.08570313 7.71484375 0.09765625 C7.71484375 0.42765625 7.71484375 0.75765625 7.71484375 1.09765625 C5.07484375 1.09765625 2.43484375 1.09765625 -0.28515625 1.09765625 C-0.61515625 2.08765625 -0.94515625 3.07765625 -1.28515625 4.09765625 C-3.34765625 4.78515625 -3.34765625 4.78515625 -5.28515625 5.09765625 C-2.87806166 0.12299409 -2.87806166 0.12299409 0 0 Z " fill="#304483" transform="translate(406.28515625,42.90234375)"/>
<path d="M0 0 C3 1 3 1 5 4 C4 5 4 5 1.4375 5.0625 C0.2309375 5.0315625 0.2309375 5.0315625 -1 5 C-0.67 3.35 -0.34 1.7 0 0 Z " fill="#6C6D6B" transform="translate(295,630)"/>
<path d="M0 0 C2.31 0 4.62 0 7 0 C5.33333333 1.66666667 3.66666667 3.33333333 2 5 C-0.125 4.625 -0.125 4.625 -2 4 C-1.34 2.68 -0.68 1.36 0 0 Z " fill="#7A7A77" transform="translate(316,611)"/>
<path d="M0 0 C2.1875 1.3125 2.1875 1.3125 4 3 C4 3.66 4 4.32 4 5 C3.34 5 2.68 5 2 5 C1.67 4.34 1.34 3.68 1 3 C0.01 3.66 -0.98 4.32 -2 5 C-2.66 4.67 -3.32 4.34 -4 4 C-3.67 3.01 -3.34 2.02 -3 1 C-2.01 0.67 -1.02 0.34 0 0 Z " fill="#6C6C6B" transform="translate(135,509)"/>
<path d="M0 0 C0 0.99 0 1.98 0 3 C-2.76223278 5.76223278 -5.20706617 5.57856291 -9 6 C-9 5.34 -9 4.68 -9 4 C-6.03 2.68 -3.06 1.36 0 0 Z " fill="#C0C0BB" transform="translate(554,477)"/>
<path d="M0 0 C0.99 0 1.98 0 3 0 C2.71758359 1.46015291 2.42373386 2.91809793 2.125 4.375 C1.96257813 5.18710937 1.80015625 5.99921875 1.6328125 6.8359375 C1 9 1 9 -1 11 C-0.67 7.37 -0.34 3.74 0 0 Z " fill="#5F6160" transform="translate(618,437)"/>
<path d="M0 0 C1.32 0 2.64 0 4 0 C4.33 0.99 4.66 1.98 5 3 C3.02 3.99 3.02 3.99 1 5 C0.34 3.68 -0.32 2.36 -1 1 C-0.67 0.67 -0.34 0.34 0 0 Z " fill="#E3E0DD" transform="translate(493,320)"/>
<path d="M0 0 C1 2 1 2 0.375 4.5625 C-1 7 -1 7 -3.625 7.8125 C-4.40875 7.874375 -5.1925 7.93625 -6 8 C-4.02 5.36 -2.04 2.72 0 0 Z " fill="#3C4D88" transform="translate(513,303)"/>
<path d="M0 0 C0 0.99 0 1.98 0 3 C-2 4.6875 -2 4.6875 -4 6 C-4.66 5.01 -5.32 4.02 -6 3 C-5.67 2.34 -5.34 1.68 -5 1 C-2.4375 0.375 -2.4375 0.375 0 0 Z " fill="#394F89" transform="translate(513,89)"/>
<path d="M0 0 C-0.99 0.495 -0.99 0.495 -2 1 C-2 1.66 -2 2.32 -2 3 C-4.64 3 -7.28 3 -10 3 C-6.88378718 -0.11621282 -4.21175599 -0.11383124 0 0 Z " fill="#EFEDEA" transform="translate(435,626)"/>
<path d="M0 0 C2.125 0.9375 2.125 0.9375 4 2 C2.75 3.5625 2.75 3.5625 1 5 C-1.1875 4.6875 -1.1875 4.6875 -3 4 C-2.67 3.01 -2.34 2.02 -2 1 C-1.34 0.67 -0.68 0.34 0 0 Z " fill="#666666" transform="translate(533,565)"/>
<path d="M0 0 C0.99 0.33 1.98 0.66 3 1 C0.47211993 3.79872437 -1.20411134 5.45773019 -5 6 C-5 5.34 -5 4.68 -5 4 C-2.6875 1.8125 -2.6875 1.8125 0 0 Z " fill="#6B6C6B" transform="translate(513,551)"/>
<path d="M0 0 C1.65 1.65 3.3 3.3 5 5 C3.02 5.33 1.04 5.66 -1 6 C-1 2 -1 2 0 0 Z " fill="#C0BFBB" transform="translate(242,526)"/>
<path d="M0 0 C5.875 4.625 5.875 4.625 7 8 C6.34 8 5.68 8 5 8 C5 7.34 5 6.68 5 6 C3.35 5.67 1.7 5.34 0 5 C0 3.35 0 1.7 0 0 Z " fill="#6B6B6B" transform="translate(139,514)"/>
<path d="M0 0 C0.33 0.66 0.66 1.32 1 2 C-0.98 4.97 -0.98 4.97 -3 8 C-4.24546405 5.50907189 -3.7767578 4.58919267 -3 2 C-3.66 1.67 -4.32 1.34 -5 1 C-3.35 0.67 -1.7 0.34 0 0 Z " fill="#C0BEBB" transform="translate(570,483)"/>
<path d="M0 0 C0.66 0.66 1.32 1.32 2 2 C-0.64 4.31 -3.28 6.62 -6 9 C-6.66 8.67 -7.32 8.34 -8 8 C-5.36 5.36 -2.72 2.72 0 0 Z " fill="#C4C4C1" transform="translate(221,442)"/>
<path d="M0 0 C3.93673644 1.31224548 6.22719294 2.91910327 9 6 C6.07606119 5.37344168 3.55170871 4.5838192 1 3 C0.67 2.01 0.34 1.02 0 0 Z " fill="#6D6D6C" transform="translate(161,429)"/>
<path d="M0 0 C0.33 0.66 0.66 1.32 1 2 C1.99 1.67 2.98 1.34 4 1 C4.33 1.99 4.66 2.98 5 4 C5.66 4.33 6.32 4.66 7 5 C5.0085944 5.38133299 3.00720923 5.71325582 1 6 C0 5 0 5 -0.0625 2.4375 C-0.041875 1.633125 -0.02125 0.82875 0 0 Z " fill="#6D6D6C" transform="translate(65,424)"/>
<path d="M0 0 C0 3 0 3 -1.5 4.6875 C-1.995 5.120625 -2.49 5.55375 -3 6 C-3.66 5.67 -4.32 5.34 -5 5 C-5 3.68 -5 2.36 -5 1 C-3.35 0.67 -1.7 0.34 0 0 Z " fill="#C1C0BB" transform="translate(200,423)"/>
<path d="M0 0 C1.32 1.32 2.64 2.64 4 4 C3.34 5.32 2.68 6.64 2 8 C0.4375 6.8125 0.4375 6.8125 -1 5 C-0.6875 2.3125 -0.6875 2.3125 0 0 Z " fill="#415589" transform="translate(460,144)"/>
<path d="M0 0 C0.33 0.66 0.66 1.32 1 2 C-0.65 4.31 -2.3 6.62 -4 9 C-4 6.66666667 -4 4.33333333 -4 2 C-2.68 1.34 -1.36 0.68 0 0 Z " fill="#C2C0BC" transform="translate(560,498)"/>
<path d="M0 0 C1 2 1 2 0.3125 5 C-1 8 -1 8 -3.125 9.375 C-3.74375 9.58125 -4.3625 9.7875 -5 10 C-3.66511872 6.40608886 -2.03977277 3.24509304 0 0 Z " fill="#676767" transform="translate(577,474)"/>
<path d="M0 0 C2.475 0.495 2.475 0.495 5 1 C5.33 2.32 5.66 3.64 6 5 C4.35 5 2.7 5 1 5 C0.67 3.35 0.34 1.7 0 0 Z " fill="#686A69" transform="translate(75,455)"/>
<path d="M0 0 C2.625 0.375 2.625 0.375 5 1 C2.7613435 3.2386565 0.93429467 3.8996395 -2 5 C-2.99 5.495 -2.99 5.495 -4 6 C-2.84826645 3.53199953 -1.95216435 1.95216435 0 0 Z " fill="#374D86" transform="translate(372,314)"/>
<path d="M0 0 C0.66 0.66 1.32 1.32 2 2 C0.625 4 0.625 4 -1 6 C-1.66 6 -2.32 6 -3 6 C-3.33 6.99 -3.66 7.98 -4 9 C-4.33 8.34 -4.66 7.68 -5 7 C-3.35 4.69 -1.7 2.38 0 0 Z " fill="#C1C0BD" transform="translate(123,210)"/>
<path d="M0 0 C0.99 0 1.98 0 3 0 C3.33 1.32 3.66 2.64 4 4 C2.824375 4.2165625 2.824375 4.2165625 1.625 4.4375 C-0.96421018 4.87798925 -0.96421018 4.87798925 -3 6 C-2 4 -1 2 0 0 Z " fill="#EFEEE7" transform="translate(499,107)"/>
<path d="M0 0 C3.125 0.75 3.125 0.75 6 2 C6.33 2.66 6.66 3.32 7 4 C3.7 3.34 0.4 2.68 -3 2 C-2.01 1.34 -1.02 0.68 0 0 Z M-2 3 C0 4 0 4 0 4 Z " fill="#C0BEBA" transform="translate(311,472)"/>
<path d="M0 0 C2.3129482 2.3129482 2.49580975 3.47904875 3.125 6.625 C3.29257813 7.44226563 3.46015625 8.25953125 3.6328125 9.1015625 C3.81457031 10.04128906 3.81457031 10.04128906 4 11 C1.64046906 8.64046906 1.50858587 7.22104383 1 4 C0.34 4 -0.32 4 -1 4 C-0.67 2.68 -0.34 1.36 0 0 Z " fill="#666765" transform="translate(92,428)"/>
<path d="M0 0 C1 3 1 3 0.0625 5.1875 C-0.4634375 6.0846875 -0.4634375 6.0846875 -1 7 C-1.66 6.34 -2.32 5.68 -3 5 C-2.75 2.9375 -2.75 2.9375 -2 1 C-1.34 0.67 -0.68 0.34 0 0 Z " fill="#F1F0EB" transform="translate(76,237)"/>
<path d="M0 0 C0.33 0.66 0.66 1.32 1 2 C-2.41176471 8.70588235 -2.41176471 8.70588235 -5 10 C-3.84414715 6.08788267 -2.64465038 3.1254959 0 0 Z " fill="#606262" transform="translate(97,200)"/>
<path d="M0 0 C0.66 0.99 1.32 1.98 2 3 C1.67 3.66 1.34 4.32 1 5 C-2.0625 5.625 -2.0625 5.625 -5 6 C-3.35 4.02 -1.7 2.04 0 0 Z " fill="#364C86" transform="translate(408,162)"/>
<path d="M0 0 C0 3.20395416 -0.74335022 5.09399739 -2 8 C-2.99 8 -3.98 8 -5 8 C-4.45773019 4.20411134 -2.79872437 2.52788007 0 0 Z " fill="#F5F1E7" transform="translate(461,153)"/>
<path d="M0 0 C0.66 0 1.32 0 2 0 C1.64950425 3.24208567 1.43778819 4.61527704 -1.0625 6.8125 C-1.701875 7.204375 -2.34125 7.59625 -3 8 C-2.690625 7.236875 -2.38125 6.47375 -2.0625 5.6875 C-1.32106407 3.81210323 -0.63771783 1.91315348 0 0 Z " fill="#F1EFEB" transform="translate(125,158)"/>
<path d="M0 0 C0.33 0.66 0.66 1.32 1 2 C0.67 2.99 0.34 3.98 0 5 C-2.5625 6.1875 -2.5625 6.1875 -5 7 C-3.70700306 4.11562221 -2.34058637 2.12780579 0 0 Z " fill="#374C87" transform="translate(448,114)"/>
</svg>
